<svg id="svg" version="1.1" xmlns="http://www.w3.org/2000/svg" xmlns:xlink="http://www.w3.org/1999/xlink" width="400" height="400" viewBox="0, 0, 400,400"><g id="svgg"><path id="path0" d="M49.200 2.988 C 49.200 7.721,50.262 14.129,52.515 23.000 C 53.074 25.200,53.722 28.059,53.956 29.353 C 54.189 30.647,54.726 32.447,55.150 33.353 C 56.008 35.189,57.015 38.354,57.341 40.237 C 57.459 40.918,58.103 42.358,58.773 43.437 C 60.025 45.454,62.479 50.961,63.392 53.800 C 64.319 56.683,66.472 60.839,70.875 68.246 C 71.936 70.031,73.013 72.101,73.268 72.846 C 73.524 73.591,74.152 74.756,74.665 75.436 C 75.177 76.115,75.795 77.240,76.037 77.936 C 76.280 78.631,76.632 79.200,76.819 79.200 C 77.006 79.200,78.011 80.415,79.051 81.900 C 80.092 83.385,82.072 85.680,83.453 87.000 C 85.373 88.837,86.074 89.822,86.438 91.200 C 86.798 92.558,87.297 93.272,88.473 94.107 C 89.329 94.716,90.139 95.498,90.273 95.845 C 90.406 96.192,93.094 99.063,96.246 102.226 C 99.399 105.389,102.516 108.719,103.174 109.627 C 104.360 111.264,108.324 114.775,111.400 116.911 C 114.734 119.227,115.739 120.034,118.338 122.482 C 119.809 123.867,122.090 125.600,123.406 126.332 C 124.723 127.065,127.240 128.545,129.000 129.620 C 130.760 130.696,133.280 132.141,134.600 132.833 C 135.920 133.524,137.277 134.333,137.615 134.630 C 137.954 134.927,140.108 136.003,142.403 137.021 C 150.817 140.751,150.986 142.910,143.356 149.202 C 141.890 150.411,139.665 152.390,138.411 153.600 C 137.157 154.810,134.671 157.037,132.887 158.548 C 131.102 160.059,129.141 162.039,128.529 162.948 C 127.916 163.857,126.287 165.936,124.908 167.570 C 123.528 169.203,122.400 170.787,122.400 171.090 C 122.400 171.954,121.275 173.912,119.852 175.524 C 119.135 176.336,118.037 177.900,117.412 179.000 C 116.787 180.100,115.762 181.659,115.133 182.464 C 114.504 183.269,113.738 184.641,113.431 185.513 C 113.123 186.384,112.145 188.619,111.258 190.479 C 110.121 192.861,109.470 194.944,109.053 197.532 C 108.728 199.553,108.104 201.789,107.666 202.503 C 106.534 204.349,105.705 207.582,105.180 212.200 C 104.930 214.400,104.454 218.450,104.124 221.200 C 103.793 223.950,103.437 227.370,103.333 228.800 C 103.108 231.886,104.540 242.736,105.389 244.378 C 105.825 245.221,105.909 246.331,105.731 248.864 C 105.486 252.337,106.154 255.895,107.422 257.871 C 107.929 258.661,108.599 260.870,110.251 267.200 C 110.567 268.410,111.253 270.300,111.776 271.400 C 112.299 272.500,113.008 274.155,113.351 275.077 C 113.694 275.999,114.746 277.535,115.688 278.488 C 116.772 279.586,117.734 281.115,118.311 282.656 C 119.147 284.888,120.527 286.885,126.527 294.541 C 127.588 295.893,129.170 297.948,130.045 299.106 C 130.982 300.348,132.490 301.700,133.717 302.401 C 134.954 303.107,136.650 304.632,137.892 306.156 C 139.790 308.484,142.064 310.342,148.678 314.971 C 149.948 315.859,151.108 317.032,151.349 317.671 C 151.584 318.292,152.051 318.801,152.388 318.802 C 153.818 318.807,156.112 319.722,157.311 320.766 C 158.967 322.207,161.440 323.281,165.200 324.193 C 166.877 324.600,168.699 325.335,169.331 325.860 C 169.953 326.377,170.973 326.800,171.599 326.800 C 172.224 326.800,173.966 327.414,175.468 328.165 C 178.755 329.807,181.129 330.335,187.200 330.776 C 190.412 331.009,192.705 331.422,194.800 332.146 C 200.595 334.149,211.989 334.269,217.621 332.387 C 220.045 331.577,225.110 330.791,229.200 330.589 C 232.117 330.446,234.970 329.606,237.504 328.144 C 238.442 327.604,240.152 327.057,241.304 326.929 C 242.457 326.802,244.030 326.372,244.800 325.975 C 245.570 325.578,247.370 324.708,248.800 324.041 C 252.384 322.370,257.614 319.228,259.462 317.636 C 260.308 316.907,262.471 315.377,264.268 314.236 C 269.096 311.169,273.371 307.814,277.180 304.100 C 279.041 302.285,280.709 300.800,280.885 300.800 C 281.062 300.800,281.478 300.125,281.809 299.300 C 282.153 298.442,283.040 297.372,283.880 296.800 C 287.457 294.364,296.000 282.564,296.000 280.058 C 296.000 279.247,297.528 276.510,298.770 275.096 C 299.484 274.282,300.192 272.769,300.601 271.185 C 300.967 269.763,301.589 268.060,301.983 267.400 C 302.912 265.843,305.000 258.729,305.790 254.430 C 306.131 252.577,306.579 250.417,306.786 249.630 C 309.785 238.216,310.641 224.336,308.688 218.766 C 308.051 216.948,307.472 214.142,307.245 211.766 C 306.994 209.140,306.187 205.435,304.858 200.800 C 302.177 191.451,301.541 189.790,300.059 188.261 C 299.366 187.546,298.800 186.692,298.800 186.362 C 298.800 185.454,295.050 178.071,293.434 175.800 C 292.652 174.700,291.694 173.287,291.306 172.660 C 290.918 172.032,289.750 170.412,288.712 169.060 C 287.673 167.707,286.233 165.815,285.512 164.856 C 284.790 163.896,283.740 162.816,283.177 162.456 C 282.223 161.844,280.885 160.382,276.112 154.740 C 275.060 153.496,273.570 152.162,272.800 151.775 C 271.481 151.112,266.410 147.086,263.927 144.731 C 262.795 143.657,262.355 140.825,263.042 139.034 C 263.355 138.220,268.112 134.758,270.419 133.666 C 273.951 131.994,276.236 130.500,278.218 128.567 C 280.266 126.570,284.156 124.000,285.130 124.000 C 286.335 124.000,293.739 118.584,295.926 116.103 C 297.177 114.684,298.700 113.263,299.311 112.946 C 299.922 112.628,300.898 111.834,301.479 111.182 C 302.060 110.530,303.386 109.451,304.426 108.784 C 305.465 108.116,306.977 106.722,307.784 105.685 C 308.592 104.648,310.096 103.170,311.126 102.400 C 312.329 101.501,313.393 100.225,314.096 98.835 C 315.501 96.063,316.204 95.307,317.676 94.983 C 318.663 94.767,319.059 94.297,319.973 92.261 C 320.580 90.907,321.404 89.530,321.805 89.200 C 322.538 88.595,324.055 86.417,327.000 81.742 C 328.585 79.225,330.781 76.217,332.066 74.801 C 332.433 74.397,333.111 73.211,333.574 72.165 C 334.037 71.119,335.074 69.460,335.880 68.477 C 336.685 67.494,337.673 65.692,338.075 64.473 C 338.478 63.253,339.074 61.961,339.400 61.600 C 339.726 61.239,340.339 59.967,340.762 58.772 C 342.574 53.652,343.601 51.178,345.402 47.600 C 347.493 43.444,350.400 36.027,350.400 34.845 C 350.400 34.436,350.687 33.313,351.038 32.350 C 353.015 26.921,354.053 22.424,354.256 18.400 C 354.426 15.021,354.744 13.379,355.884 10.000 C 356.760 7.400,357.377 4.695,357.502 2.900 L 357.705 0.000 203.453 0.000 L 49.200 0.000 49.200 2.988 " stroke="none" fill="#fbfbfb" fill-rule="evenodd"></path><path id="path1" d="M47.080 2.700 C 47.378 6.966,49.511 19.466,50.578 23.200 C 51.113 25.070,51.760 27.663,52.016 28.962 C 52.543 31.628,54.093 35.960,55.037 37.401 C 55.383 37.928,55.930 39.635,56.252 41.194 C 56.600 42.873,57.710 45.774,58.977 48.314 C 60.152 50.671,61.219 53.185,61.347 53.900 C 61.682 55.771,65.545 63.597,68.209 67.800 C 69.464 69.780,70.746 72.115,71.059 72.989 C 71.371 73.862,71.953 74.942,72.350 75.389 C 72.748 75.835,73.716 77.370,74.500 78.800 C 76.137 81.782,78.043 84.315,81.251 87.773 C 82.490 89.108,83.880 90.948,84.340 91.862 C 84.801 92.776,85.658 93.902,86.244 94.363 C 86.831 94.825,87.717 96.079,88.214 97.151 C 88.731 98.267,89.769 99.590,90.645 100.250 C 91.486 100.882,92.719 101.998,93.387 102.729 C 94.054 103.461,95.789 105.359,97.242 106.947 C 98.695 108.536,100.096 110.232,100.355 110.716 C 100.615 111.201,101.578 111.980,102.496 112.449 C 103.413 112.917,105.162 114.236,106.382 115.380 C 107.602 116.524,109.230 117.884,110.000 118.402 C 111.384 119.334,113.015 120.656,116.703 123.835 C 119.460 126.212,126.619 130.808,128.935 131.688 C 130.031 132.105,131.395 132.809,131.964 133.253 C 133.817 134.697,137.325 136.746,141.001 138.532 C 147.172 141.530,147.154 142.929,140.877 148.551 C 138.525 150.658,136.377 152.740,136.104 153.178 C 135.832 153.616,135.052 154.263,134.372 154.615 C 133.000 155.324,128.342 160.103,126.828 162.355 C 126.293 163.150,124.612 165.150,123.092 166.800 C 121.571 168.450,119.727 170.984,118.993 172.432 C 118.259 173.880,116.804 176.310,115.759 177.832 C 114.714 179.354,113.062 182.310,112.088 184.400 C 111.114 186.490,110.085 188.470,109.800 188.800 C 109.516 189.130,108.618 191.731,107.806 194.580 C 106.993 197.429,105.794 201.105,105.141 202.749 C 104.429 204.540,103.797 207.114,103.562 209.169 C 103.347 211.056,102.914 214.490,102.599 216.800 C 100.943 228.962,100.898 231.868,102.224 240.800 C 102.534 242.890,103.048 246.808,103.366 249.506 C 103.898 254.013,105.347 259.277,107.413 264.200 C 107.690 264.860,108.140 266.390,108.414 267.600 C 108.922 269.842,109.751 271.771,112.197 276.400 C 112.952 277.830,113.577 279.321,113.585 279.713 C 113.593 280.106,114.231 281.058,115.002 281.829 C 115.773 282.600,116.933 284.259,117.580 285.515 C 118.227 286.772,119.668 288.970,120.783 290.400 C 121.898 291.830,123.842 294.412,125.105 296.137 C 127.976 300.061,132.150 304.580,133.904 305.664 C 134.638 306.118,136.445 307.684,137.919 309.144 C 139.394 310.605,141.770 312.652,143.200 313.694 C 144.630 314.736,147.150 316.641,148.800 317.927 C 150.450 319.213,152.253 320.378,152.807 320.517 C 153.360 320.655,154.790 321.497,155.984 322.388 C 157.570 323.572,159.510 324.445,163.178 325.630 C 168.717 327.418,172.576 328.878,174.969 330.091 C 175.831 330.528,178.711 331.319,181.369 331.847 C 184.026 332.375,187.010 333.067,188.000 333.384 C 193.304 335.081,209.813 335.823,217.000 334.686 C 219.200 334.338,221.976 333.941,223.169 333.804 C 224.362 333.666,225.702 333.359,226.147 333.121 C 226.592 332.883,228.794 332.376,231.040 331.993 C 233.465 331.580,236.236 330.795,237.862 330.059 C 239.368 329.377,242.333 328.274,244.452 327.606 C 249.392 326.050,254.413 323.688,257.185 321.615 C 258.386 320.717,260.094 319.764,260.979 319.499 C 261.865 319.234,263.328 318.293,264.232 317.408 C 265.136 316.524,267.019 314.994,268.417 314.010 C 271.374 311.927,278.379 306.030,280.309 304.000 C 288.534 295.345,294.593 287.505,297.084 282.292 C 298.010 280.354,299.142 278.243,299.600 277.600 C 300.058 276.957,300.774 275.438,301.191 274.225 C 301.609 273.012,302.591 270.926,303.375 269.588 C 304.159 268.251,304.808 266.852,304.818 266.479 C 304.827 266.105,305.105 265.080,305.434 264.200 C 305.764 263.320,306.384 261.250,306.813 259.600 C 311.543 241.398,312.658 226.565,310.134 215.400 C 309.438 212.320,308.647 208.540,308.377 207.000 C 307.934 204.473,306.291 198.691,304.000 191.601 C 303.539 190.172,302.732 188.552,302.209 188.001 C 301.685 187.451,301.134 186.460,300.984 185.800 C 300.621 184.206,296.881 177.482,293.864 173.000 C 292.531 171.020,290.711 168.320,289.820 167.000 C 288.930 165.680,286.878 163.250,285.262 161.600 C 283.647 159.950,282.076 158.122,281.772 157.539 C 281.468 156.955,280.608 156.099,279.860 155.637 C 279.113 155.175,278.074 154.157,277.551 153.375 C 277.028 152.592,275.160 150.995,273.400 149.825 C 265.238 144.401,262.720 141.059,265.500 139.337 C 266.105 138.962,267.140 138.175,267.800 137.587 C 268.460 136.998,271.340 135.206,274.200 133.604 C 277.060 132.002,280.191 129.995,281.158 129.144 C 282.124 128.294,283.586 127.397,284.405 127.151 C 286.580 126.500,292.759 121.799,297.443 117.233 C 299.688 115.045,302.258 112.881,303.155 112.423 C 305.247 111.356,314.307 102.361,315.683 99.985 C 316.261 98.987,317.214 97.914,317.800 97.600 C 318.386 97.286,319.330 96.213,319.898 95.215 C 320.465 94.217,321.417 92.860,322.013 92.200 C 322.608 91.540,324.465 88.930,326.138 86.400 C 327.812 83.870,330.040 80.678,331.090 79.307 C 332.141 77.936,333.645 75.639,334.434 74.203 C 335.222 72.768,336.270 71.164,336.764 70.639 C 337.933 69.394,341.823 61.690,342.595 59.091 C 342.926 57.976,343.464 56.657,343.790 56.159 C 344.116 55.662,344.728 54.388,345.150 53.328 C 345.572 52.267,346.769 49.510,347.810 47.200 C 349.902 42.560,352.400 35.776,352.400 34.734 C 352.400 34.366,353.046 32.026,353.836 29.533 C 355.245 25.086,355.978 21.787,356.798 16.200 C 357.025 14.660,357.728 11.600,358.363 9.400 C 358.997 7.200,359.618 4.185,359.743 2.700 L 359.970 0.000 358.838 0.000 C 357.717 0.000,357.703 0.031,357.502 2.900 C 357.377 4.695,356.760 7.400,355.884 10.000 C 354.744 13.379,354.426 15.021,354.256 18.400 C 354.053 22.424,353.015 26.921,351.038 32.350 C 350.687 33.313,350.400 34.436,350.400 34.845 C 350.400 36.027,347.493 43.444,345.402 47.600 C 343.601 51.178,342.574 53.652,340.762 58.772 C 340.339 59.967,339.726 61.239,339.400 61.600 C 339.074 61.961,338.478 63.253,338.075 64.473 C 337.673 65.692,336.685 67.494,335.880 68.477 C 335.074 69.460,334.037 71.119,333.574 72.165 C 333.111 73.211,332.433 74.397,332.066 74.801 C 330.781 76.217,328.585 79.225,327.000 81.742 C 324.055 86.417,322.538 88.595,321.805 89.200 C 321.404 89.530,320.580 90.907,319.973 92.261 C 319.059 94.297,318.663 94.767,317.676 94.983 C 316.204 95.307,315.501 96.063,314.096 98.835 C 313.393 100.225,312.329 101.501,311.126 102.400 C 310.096 103.170,308.592 104.648,307.784 105.685 C 306.977 106.722,305.465 108.116,304.426 108.784 C 303.386 109.451,302.060 110.530,301.479 111.182 C 300.898 111.834,299.922 112.628,299.311 112.946 C 298.700 113.263,297.177 114.684,295.926 116.103 C 293.739 118.584,286.335 124.000,285.130 124.000 C 284.156 124.000,280.266 126.570,278.218 128.567 C 276.236 130.500,273.951 131.994,270.419 133.666 C 268.112 134.758,263.355 138.220,263.042 139.034 C 262.355 140.825,262.795 143.657,263.927 144.731 C 266.410 147.086,271.481 151.112,272.800 151.775 C 273.570 152.162,275.060 153.496,276.112 154.740 C 280.885 160.382,282.223 161.844,283.177 162.456 C 283.740 162.816,284.790 163.896,285.512 164.856 C 286.233 165.815,287.673 167.707,288.712 169.060 C 289.750 170.412,290.918 172.032,291.306 172.660 C 291.694 173.287,292.652 174.700,293.434 175.800 C 295.050 178.071,298.800 185.454,298.800 186.362 C 298.800 186.692,299.366 187.546,300.059 188.261 C 301.541 189.790,302.177 191.451,304.858 200.800 C 306.187 205.435,306.994 209.140,307.245 211.766 C 307.472 214.142,308.051 216.948,308.688 218.766 C 310.641 224.336,309.785 238.216,306.786 249.630 C 306.579 250.417,306.131 252.577,305.790 254.430 C 305.000 258.729,302.912 265.843,301.983 267.400 C 301.589 268.060,300.967 269.763,300.601 271.185 C 300.192 272.769,299.484 274.282,298.770 275.096 C 297.528 276.510,296.000 279.247,296.000 280.058 C 296.000 282.564,287.457 294.364,283.880 296.800 C 283.040 297.372,282.153 298.442,281.809 299.300 C 281.478 300.125,281.062 300.800,280.885 300.800 C 280.709 300.800,279.041 302.285,277.180 304.100 C 273.371 307.814,269.096 311.169,264.268 314.236 C 262.471 315.377,260.308 316.907,259.462 317.636 C 257.614 319.228,252.384 322.370,248.800 324.041 C 247.370 324.708,245.570 325.578,244.800 325.975 C 244.030 326.372,242.457 326.802,241.304 326.929 C 240.152 327.057,238.442 327.604,237.504 328.144 C 234.970 329.606,232.117 330.446,229.200 330.589 C 225.110 330.791,220.045 331.577,217.621 332.387 C 211.989 334.269,200.595 334.149,194.800 332.146 C 192.705 331.422,190.412 331.009,187.200 330.776 C 181.129 330.335,178.755 329.807,175.468 328.165 C 173.966 327.414,172.224 326.800,171.599 326.800 C 170.973 326.800,169.953 326.377,169.331 325.860 C 168.699 325.335,166.877 324.600,165.200 324.193 C 161.440 323.281,158.967 322.207,157.311 320.766 C 156.112 319.722,153.818 318.807,152.388 318.802 C 152.051 318.801,151.584 318.292,151.349 317.671 C 151.108 317.032,149.948 315.859,148.678 314.971 C 142.064 310.342,139.790 308.484,137.892 306.156 C 136.650 304.632,134.954 303.107,133.717 302.401 C 132.490 301.700,130.982 300.348,130.045 299.106 C 129.170 297.948,127.588 295.893,126.527 294.541 C 120.527 286.885,119.147 284.888,118.311 282.656 C 117.734 281.115,116.772 279.586,115.688 278.488 C 114.746 277.535,113.694 275.999,113.351 275.077 C 113.008 274.155,112.301 272.500,111.781 271.400 C 111.260 270.300,110.449 267.960,109.978 266.200 C 109.508 264.440,108.872 262.050,108.564 260.890 C 108.256 259.729,107.748 258.379,107.434 257.890 C 106.154 255.897,105.485 252.348,105.731 248.864 C 105.909 246.331,105.825 245.221,105.389 244.378 C 104.540 242.736,103.108 231.886,103.333 228.800 C 103.437 227.370,103.793 223.950,104.124 221.200 C 104.454 218.450,104.930 214.400,105.180 212.200 C 105.705 207.582,106.534 204.349,107.666 202.503 C 108.104 201.789,108.728 199.553,109.053 197.532 C 109.470 194.944,110.121 192.861,111.258 190.479 C 112.145 188.619,113.123 186.384,113.431 185.513 C 113.738 184.641,114.504 183.269,115.133 182.464 C 115.762 181.659,116.787 180.100,117.412 179.000 C 118.037 177.900,119.135 176.336,119.852 175.524 C 121.275 173.912,122.400 171.954,122.400 171.090 C 122.400 170.787,123.528 169.203,124.908 167.570 C 126.287 165.936,127.916 163.857,128.529 162.948 C 129.141 162.039,131.102 160.059,132.887 158.548 C 134.671 157.037,137.157 154.810,138.411 153.600 C 139.665 152.390,141.890 150.411,143.356 149.202 C 150.986 142.910,150.817 140.751,142.403 137.021 C 140.108 136.003,137.954 134.927,137.615 134.630 C 137.277 134.333,135.920 133.524,134.600 132.833 C 133.280 132.141,130.760 130.696,129.000 129.620 C 127.240 128.545,124.723 127.065,123.406 126.332 C 122.090 125.600,119.809 123.867,118.338 122.482 C 115.739 120.034,114.734 119.227,111.400 116.911 C 108.324 114.775,104.360 111.264,103.174 109.627 C 102.516 108.719,99.399 105.389,96.246 102.226 C 93.094 99.063,90.406 96.192,90.273 95.845 C 90.139 95.498,89.329 94.716,88.473 94.107 C 87.297 93.272,86.798 92.558,86.438 91.200 C 86.074 89.822,85.373 88.837,83.453 87.000 C 82.072 85.680,80.092 83.385,79.051 81.900 C 78.011 80.415,77.006 79.200,76.819 79.200 C 76.632 79.200,76.280 78.631,76.037 77.936 C 75.795 77.240,75.177 76.115,74.665 75.436 C 74.152 74.756,73.524 73.591,73.268 72.846 C 73.013 72.101,71.936 70.031,70.875 68.246 C 66.472 60.839,64.319 56.683,63.392 53.800 C 62.479 50.961,60.025 45.454,58.773 43.437 C 58.103 42.358,57.459 40.918,57.341 40.237 C 57.015 38.354,56.008 35.189,55.150 33.353 C 54.726 32.447,54.189 30.647,53.956 29.353 C 53.722 28.059,53.074 25.200,52.515 23.000 C 50.262 14.129,49.200 7.721,49.200 2.988 L 49.200 0.000 48.046 0.000 L 46.892 0.000 47.080 2.700 " stroke="none" fill="#e4e4e4" fill-rule="evenodd"></path><path id="path2" d="M46.126 3.473 C 46.417 7.588,47.634 14.354,49.280 21.000 C 49.934 23.640,50.794 27.240,51.191 29.000 C 52.082 32.955,53.325 36.485,54.329 37.915 C 54.748 38.512,55.394 40.379,55.765 42.065 C 56.150 43.815,57.273 46.792,58.382 49.005 C 59.451 51.136,60.446 53.537,60.593 54.340 C 60.739 55.143,61.089 56.160,61.369 56.600 C 61.649 57.040,62.112 58.120,62.396 59.000 C 62.994 60.847,65.809 65.952,68.086 69.318 C 68.948 70.593,69.851 72.213,70.091 72.918 C 70.331 73.623,70.904 74.684,71.364 75.276 C 71.824 75.868,73.100 77.908,74.200 79.809 C 75.300 81.711,77.507 84.826,79.105 86.733 C 80.702 88.640,82.322 90.727,82.705 91.372 C 83.087 92.016,84.035 93.276,84.810 94.172 C 85.586 95.067,86.518 96.454,86.882 97.253 C 87.749 99.160,89.793 101.459,91.680 102.651 C 92.513 103.176,93.651 104.331,94.210 105.216 C 94.769 106.101,95.945 107.475,96.824 108.269 C 97.702 109.063,98.703 110.189,99.047 110.773 C 99.392 111.356,100.638 112.338,101.816 112.955 C 102.994 113.571,104.246 114.516,104.599 115.055 C 104.952 115.593,106.626 117.061,108.320 118.318 C 110.014 119.575,112.722 121.683,114.338 123.002 C 115.953 124.321,118.113 125.981,119.138 126.691 C 120.162 127.401,122.069 128.730,123.376 129.645 C 124.683 130.559,126.663 131.659,127.776 132.089 C 128.889 132.519,130.070 133.040,130.400 133.247 C 132.858 134.783,134.740 135.990,136.489 137.150 C 137.609 137.892,139.442 138.908,140.563 139.407 C 146.259 141.943,145.541 143.685,135.049 152.800 C 134.415 153.350,132.895 154.745,131.670 155.900 C 130.444 157.055,129.304 158.000,129.136 158.000 C 128.968 158.000,128.071 159.125,127.143 160.500 C 126.216 161.875,124.024 164.530,122.273 166.400 C 120.287 168.520,118.720 170.628,118.108 172.000 C 117.569 173.210,116.271 175.460,115.223 177.000 C 113.319 179.801,111.128 183.900,110.593 185.663 C 110.437 186.178,109.924 187.230,109.455 188.000 C 108.663 189.298,104.703 200.422,103.403 205.000 C 102.874 206.866,102.476 209.735,100.993 222.400 C 100.119 229.864,100.441 237.845,101.944 246.000 C 102.167 247.210,102.557 249.730,102.810 251.600 C 103.262 254.943,105.138 261.517,106.269 263.723 C 106.586 264.341,107.195 266.215,107.622 267.887 C 108.491 271.285,110.072 274.985,111.173 276.199 C 111.572 276.639,112.291 278.067,112.771 279.371 C 113.250 280.675,114.169 282.343,114.814 283.076 C 115.458 283.810,116.284 284.993,116.650 285.705 C 117.728 287.803,120.377 291.584,123.022 294.800 C 124.379 296.450,125.767 298.340,126.108 299.000 C 126.448 299.660,128.318 301.685,130.263 303.501 C 132.208 305.316,134.880 307.853,136.200 309.138 C 137.520 310.423,140.246 312.673,142.258 314.138 C 144.269 315.603,146.017 317.067,146.142 317.392 C 146.266 317.717,147.230 318.406,148.284 318.924 C 150.914 320.216,154.386 322.317,155.652 323.382 C 156.231 323.869,158.931 325.033,161.652 325.968 C 168.075 328.176,172.646 329.910,174.427 330.816 C 175.211 331.215,177.339 331.823,179.154 332.168 C 182.559 332.813,185.812 333.656,188.600 334.614 C 194.525 336.650,218.758 336.273,226.400 334.025 C 227.830 333.605,230.710 332.866,232.800 332.384 C 234.890 331.902,237.230 331.188,238.000 330.798 C 238.770 330.408,241.560 329.364,244.200 328.479 C 250.884 326.237,255.908 323.950,257.846 322.267 C 258.752 321.481,260.378 320.501,261.461 320.090 C 263.433 319.340,266.832 316.771,274.942 309.899 C 277.331 307.876,279.806 305.903,280.443 305.515 C 281.090 305.122,281.889 304.094,282.251 303.190 C 282.634 302.231,283.349 301.336,284.002 300.999 C 285.108 300.427,287.670 297.450,291.400 292.403 C 292.500 290.914,294.045 288.910,294.833 287.948 C 295.621 286.987,296.508 285.570,296.803 284.800 C 297.098 284.030,297.646 282.950,298.020 282.400 C 298.946 281.037,301.428 276.030,301.787 274.800 C 301.947 274.250,302.770 272.630,303.615 271.200 C 304.461 269.770,305.369 267.700,305.635 266.600 C 305.900 265.500,306.350 264.134,306.635 263.565 C 307.301 262.235,308.921 255.672,309.787 250.800 C 310.158 248.710,310.704 245.920,311.000 244.600 C 312.537 237.741,312.784 221.936,311.428 217.200 C 311.081 215.990,310.446 213.110,310.015 210.800 C 308.184 200.973,304.621 189.182,303.058 187.782 C 302.556 187.332,301.828 185.982,301.439 184.782 C 300.802 182.814,296.960 175.997,294.104 171.765 C 293.497 170.866,292.294 169.066,291.432 167.765 C 289.124 164.284,285.656 160.165,284.524 159.559 C 283.979 159.268,283.085 158.264,282.537 157.329 C 281.989 156.394,280.926 155.249,280.176 154.785 C 279.425 154.321,278.493 153.397,278.105 152.732 C 277.712 152.058,275.808 150.487,273.800 149.180 C 265.938 144.065,264.566 141.628,267.875 138.657 C 269.400 137.286,270.775 136.453,278.200 132.396 C 279.520 131.674,281.140 130.584,281.800 129.972 C 282.460 129.360,283.810 128.539,284.800 128.148 C 287.494 127.082,294.492 121.629,298.903 117.157 C 301.471 114.553,303.103 113.200,303.677 113.200 C 304.652 113.200,315.168 102.796,316.190 100.819 C 316.516 100.188,317.395 99.161,318.142 98.536 C 318.890 97.911,319.867 96.674,320.314 95.787 C 320.762 94.900,321.610 93.916,322.200 93.600 C 322.790 93.284,323.638 92.300,324.085 91.413 C 324.532 90.526,325.657 88.720,326.585 87.400 C 327.513 86.080,328.784 84.100,329.409 83.000 C 330.035 81.900,331.206 80.270,332.011 79.377 C 332.816 78.484,334.171 76.504,335.023 74.977 C 335.874 73.450,337.149 71.439,337.856 70.508 C 338.563 69.577,339.266 68.422,339.419 67.940 C 339.572 67.458,340.341 66.059,341.128 64.832 C 341.915 63.604,342.878 61.450,343.269 60.045 C 343.660 58.640,344.250 57.078,344.581 56.573 C 344.912 56.068,345.528 54.788,345.951 53.728 C 346.374 52.667,347.569 49.910,348.606 47.600 C 351.099 42.047,352.804 37.430,353.212 35.125 C 353.395 34.093,354.168 31.303,354.930 28.925 C 355.693 26.546,356.717 22.090,357.207 19.023 C 357.697 15.955,358.604 11.986,359.222 10.202 C 360.411 6.769,361.263 -0.000,360.505 0.000 C 360.033 0.000,359.602 1.874,359.595 3.950 C 359.593 4.748,359.063 7.150,358.418 9.289 C 357.773 11.428,357.053 14.488,356.818 16.089 C 355.981 21.781,355.254 25.059,353.836 29.533 C 353.046 32.026,352.400 34.366,352.400 34.734 C 352.400 35.776,349.902 42.560,347.810 47.200 C 346.769 49.510,345.572 52.267,345.150 53.328 C 344.728 54.388,344.116 55.662,343.790 56.159 C 343.464 56.657,342.926 57.976,342.595 59.091 C 341.823 61.690,337.933 69.394,336.764 70.639 C 336.270 71.164,335.222 72.768,334.434 74.203 C 333.645 75.639,332.141 77.936,331.090 79.307 C 330.040 80.678,327.812 83.870,326.138 86.400 C 324.465 88.930,322.608 91.540,322.013 92.200 C 321.417 92.860,320.465 94.217,319.898 95.215 C 319.330 96.213,318.386 97.286,317.800 97.600 C 317.214 97.914,316.261 98.987,315.683 99.985 C 314.307 102.361,305.247 111.356,303.155 112.423 C 302.258 112.881,299.688 115.045,297.443 117.233 C 292.759 121.799,286.580 126.500,284.405 127.151 C 283.586 127.397,282.124 128.294,281.158 129.144 C 280.191 129.995,277.060 132.002,274.200 133.604 C 271.340 135.206,268.460 136.998,267.800 137.587 C 267.140 138.175,266.105 138.962,265.500 139.337 C 262.720 141.059,265.238 144.401,273.400 149.825 C 275.160 150.995,277.028 152.592,277.551 153.375 C 278.074 154.157,279.113 155.175,279.860 155.637 C 280.608 156.099,281.468 156.955,281.772 157.539 C 282.076 158.122,283.647 159.950,285.262 161.600 C 286.878 163.250,288.930 165.680,289.820 167.000 C 290.711 168.320,292.531 171.020,293.864 173.000 C 296.881 177.482,300.621 184.206,300.984 185.800 C 301.134 186.460,301.685 187.451,302.209 188.001 C 302.732 188.552,303.539 190.172,304.000 191.601 C 306.291 198.691,307.934 204.473,308.377 207.000 C 308.647 208.540,309.438 212.320,310.134 215.400 C 312.658 226.565,311.543 241.398,306.813 259.600 C 306.384 261.250,305.764 263.320,305.434 264.200 C 305.105 265.080,304.827 266.105,304.818 266.479 C 304.808 266.852,304.159 268.251,303.375 269.588 C 302.591 270.926,301.609 273.012,301.191 274.225 C 300.774 275.438,300.058 276.957,299.600 277.600 C 299.142 278.243,298.010 280.354,297.084 282.292 C 294.593 287.505,288.534 295.345,280.309 304.000 C 278.379 306.030,271.374 311.927,268.417 314.010 C 267.019 314.994,265.136 316.524,264.232 317.408 C 263.328 318.293,261.865 319.234,260.979 319.499 C 260.094 319.764,258.386 320.717,257.185 321.615 C 254.413 323.688,249.392 326.050,244.452 327.606 C 242.333 328.274,239.368 329.377,237.862 330.059 C 236.236 330.795,233.465 331.580,231.040 331.993 C 228.794 332.376,226.592 332.883,226.147 333.121 C 225.702 333.359,224.362 333.666,223.169 333.804 C 221.976 333.941,219.200 334.338,217.000 334.686 C 209.813 335.823,193.304 335.081,188.000 333.384 C 187.010 333.067,184.026 332.375,181.369 331.847 C 178.711 331.319,175.831 330.528,174.969 330.091 C 172.576 328.878,168.717 327.418,163.178 325.630 C 159.510 324.445,157.570 323.572,155.984 322.388 C 154.790 321.497,153.360 320.655,152.807 320.517 C 152.253 320.378,150.450 319.213,148.800 317.927 C 147.150 316.641,144.630 314.736,143.200 313.694 C 141.770 312.652,139.394 310.605,137.919 309.144 C 136.445 307.684,134.638 306.118,133.904 305.664 C 132.150 304.580,127.976 300.061,125.105 296.137 C 123.842 294.412,121.898 291.830,120.783 290.400 C 119.668 288.970,118.227 286.772,117.580 285.515 C 116.933 284.259,115.773 282.600,115.002 281.829 C 114.231 281.058,113.593 280.106,113.585 279.713 C 113.577 279.321,112.952 277.830,112.197 276.400 C 109.751 271.771,108.922 269.842,108.414 267.600 C 108.140 266.390,107.690 264.860,107.413 264.200 C 105.347 259.277,103.898 254.013,103.366 249.506 C 103.048 246.808,102.534 242.890,102.224 240.800 C 100.898 231.868,100.943 228.962,102.599 216.800 C 102.914 214.490,103.347 211.056,103.562 209.169 C 103.797 207.114,104.429 204.540,105.141 202.749 C 105.794 201.105,106.993 197.429,107.806 194.580 C 108.618 191.731,109.516 189.130,109.800 188.800 C 110.085 188.470,111.114 186.490,112.088 184.400 C 113.062 182.310,114.714 179.354,115.759 177.832 C 116.804 176.310,118.259 173.880,118.993 172.432 C 119.727 170.984,121.571 168.450,123.092 166.800 C 124.612 165.150,126.293 163.150,126.828 162.355 C 128.342 160.103,133.000 155.324,134.372 154.615 C 135.052 154.263,135.832 153.616,136.104 153.178 C 136.377 152.740,138.525 150.658,140.877 148.551 C 147.154 142.929,147.172 141.530,141.001 138.532 C 137.325 136.746,133.817 134.697,131.964 133.253 C 131.395 132.809,130.031 132.105,128.935 131.688 C 126.619 130.808,119.460 126.212,116.703 123.835 C 113.015 120.656,111.384 119.334,110.000 118.402 C 109.230 117.884,107.602 116.524,106.382 115.380 C 105.162 114.236,103.413 112.917,102.496 112.449 C 101.578 111.980,100.615 111.201,100.355 110.716 C 100.096 110.232,98.695 108.536,97.242 106.947 C 95.789 105.359,94.054 103.461,93.387 102.729 C 92.719 101.998,91.486 100.882,90.645 100.250 C 89.769 99.590,88.731 98.267,88.214 97.151 C 87.717 96.079,86.831 94.825,86.244 94.363 C 85.658 93.902,84.801 92.776,84.340 91.862 C 83.880 90.948,82.490 89.108,81.251 87.773 C 78.043 84.315,76.137 81.782,74.500 78.800 C 73.716 77.370,72.748 75.835,72.350 75.389 C 71.953 74.942,71.371 73.862,71.059 72.989 C 70.746 72.115,69.464 69.780,68.209 67.800 C 65.545 63.597,61.682 55.771,61.347 53.900 C 61.219 53.185,60.152 50.671,58.977 48.314 C 57.710 45.774,56.600 42.873,56.252 41.194 C 55.930 39.635,55.383 37.928,55.037 37.401 C 54.093 35.960,52.543 31.628,52.016 28.962 C 51.760 27.663,51.113 25.070,50.578 23.200 C 49.454 19.265,47.208 6.247,47.197 3.600 C 47.187 1.385,46.840 -0.000,46.294 -0.000 C 46.023 -0.000,45.965 1.194,46.126 3.473 " stroke="none" fill="#dcdcdc" fill-rule="evenodd"></path><path id="path3" d="M42.800 0.714 C 42.800 2.041,44.438 10.407,45.022 12.062 C 45.341 12.965,45.792 14.896,46.024 16.352 C 46.257 17.808,46.902 20.350,47.458 22.000 C 48.014 23.650,48.735 26.516,49.060 28.369 C 49.385 30.223,49.887 32.203,50.175 32.769 C 50.463 33.336,51.194 35.510,51.800 37.600 C 52.406 39.690,53.489 42.570,54.207 44.000 C 54.926 45.430,55.634 47.140,55.781 47.800 C 55.928 48.460,56.459 49.630,56.960 50.400 C 57.903 51.849,59.087 55.024,60.433 59.713 C 61.252 62.569,64.583 68.817,66.236 70.601 C 66.772 71.179,67.566 72.349,68.000 73.199 C 68.434 74.050,68.975 74.861,69.203 75.002 C 69.431 75.143,70.174 76.370,70.853 77.729 C 71.532 79.088,72.492 80.740,72.985 81.400 C 73.478 82.060,74.205 83.229,74.601 83.997 C 74.997 84.766,76.250 86.566,77.385 87.997 C 78.519 89.429,80.058 91.500,80.803 92.600 C 81.548 93.700,82.386 94.780,82.666 95.000 C 82.945 95.220,83.469 96.120,83.829 97.000 C 85.240 100.444,89.650 105.454,91.898 106.168 C 92.383 106.321,93.171 107.022,93.650 107.724 C 94.870 109.510,98.884 113.600,99.418 113.600 C 99.661 113.600,100.858 114.545,102.077 115.700 C 106.830 120.203,108.725 121.657,119.000 128.685 C 120.540 129.738,121.927 130.794,122.081 131.031 C 122.236 131.268,123.136 131.796,124.081 132.206 C 125.027 132.615,126.092 133.193,126.449 133.491 C 126.806 133.788,128.645 134.827,130.535 135.800 C 132.425 136.773,134.523 138.071,135.196 138.684 C 135.869 139.298,137.451 140.350,138.710 141.023 C 141.633 142.583,141.745 143.823,139.159 145.971 C 138.244 146.732,137.203 147.831,136.847 148.414 C 136.264 149.368,134.890 150.637,130.883 153.921 C 128.136 156.172,126.556 157.913,125.230 160.150 C 124.384 161.576,122.982 163.136,121.568 164.224 C 118.750 166.393,117.173 168.386,116.208 171.000 C 115.423 173.125,113.903 175.765,113.222 176.186 C 112.997 176.326,112.386 177.286,111.866 178.320 C 108.973 184.072,108.496 185.103,108.234 186.176 C 108.076 186.822,107.624 187.812,107.229 188.376 C 106.834 188.939,106.284 190.120,106.006 191.000 C 105.729 191.880,104.514 195.120,103.307 198.200 C 101.251 203.444,101.089 204.111,100.760 208.686 C 100.566 211.374,100.043 215.212,99.597 217.215 C 97.081 228.508,99.759 257.154,103.933 263.600 C 104.289 264.150,104.979 265.860,105.465 267.400 C 107.855 274.965,109.118 278.143,110.507 280.089 C 112.959 283.525,116.395 288.868,117.396 290.800 C 117.909 291.790,119.435 293.860,120.787 295.400 C 122.140 296.940,123.604 298.884,124.041 299.719 C 124.479 300.555,125.105 301.342,125.433 301.468 C 125.761 301.594,126.295 302.209,126.618 302.836 C 127.305 304.163,129.185 306.000,129.857 306.000 C 130.113 306.000,131.914 307.680,133.861 309.733 C 135.807 311.787,138.390 314.157,139.600 315.001 C 140.810 315.846,142.520 317.205,143.400 318.021 C 145.339 319.822,146.106 320.225,148.263 320.583 C 149.573 320.799,150.024 321.092,150.384 321.961 C 151.013 323.481,155.937 326.217,160.544 327.608 C 164.867 328.914,168.141 330.274,169.800 331.453 C 171.132 332.401,174.324 333.301,178.666 333.954 C 180.242 334.192,182.942 334.853,184.666 335.424 C 190.047 337.208,222.603 338.004,225.554 336.424 C 226.015 336.178,228.095 335.544,230.177 335.016 C 232.258 334.488,234.555 333.787,235.281 333.458 C 236.006 333.129,237.230 332.734,238.000 332.581 C 238.770 332.427,240.210 331.896,241.200 331.400 C 242.190 330.905,243.988 330.290,245.196 330.033 C 246.404 329.777,248.474 329.059,249.796 328.437 C 251.118 327.816,252.640 327.170,253.178 327.002 C 255.741 326.202,259.248 324.335,261.246 322.708 C 262.460 321.719,264.161 320.685,265.026 320.409 C 265.892 320.134,267.410 319.140,268.400 318.201 C 269.390 317.262,271.333 315.671,272.717 314.667 C 274.101 313.662,276.022 312.088,276.986 311.170 C 277.950 310.251,279.428 309.088,280.269 308.586 C 281.575 307.806,287.600 301.276,287.600 300.640 C 287.600 300.521,288.641 299.023,289.913 297.312 C 291.185 295.600,292.516 293.750,292.871 293.200 C 293.226 292.650,294.613 290.940,295.954 289.400 C 297.295 287.860,298.654 285.832,298.974 284.894 C 299.294 283.956,300.195 282.585,300.978 281.847 C 301.903 280.974,302.400 280.140,302.400 279.459 C 302.400 278.884,303.368 276.565,304.551 274.306 C 305.734 272.048,306.935 269.120,307.221 267.800 C 307.506 266.480,308.219 264.484,308.805 263.365 C 309.843 261.383,310.111 260.269,312.164 249.400 C 314.570 236.670,314.677 222.131,312.431 213.202 C 312.016 211.551,311.462 208.516,311.199 206.458 C 310.937 204.400,310.290 201.479,309.761 199.966 C 309.232 198.453,308.800 196.968,308.800 196.667 C 308.800 196.366,308.329 195.237,307.754 194.160 C 307.178 193.082,306.461 190.799,306.160 189.086 C 305.506 185.363,305.212 184.755,303.395 183.369 C 302.628 182.784,301.999 182.101,301.998 181.853 C 301.997 181.604,300.827 179.354,299.398 176.852 C 297.969 174.351,296.800 172.172,296.800 172.009 C 296.800 171.846,296.122 170.922,295.294 169.956 C 294.466 168.990,293.470 167.507,293.081 166.660 C 292.189 164.715,285.821 157.284,284.552 156.705 C 284.028 156.467,283.600 156.128,283.600 155.953 C 283.600 155.777,282.511 154.501,281.181 153.117 C 279.851 151.733,278.393 150.205,277.943 149.723 C 277.492 149.240,276.465 148.513,275.662 148.108 C 266.674 143.570,266.794 139.949,276.064 135.994 C 278.599 134.912,280.835 133.644,281.839 132.719 C 282.741 131.889,284.177 130.918,285.030 130.562 C 286.854 129.800,289.707 127.932,291.400 126.393 C 292.060 125.793,294.014 124.339,295.742 123.163 C 297.540 121.940,299.628 120.079,300.623 118.813 C 301.967 117.102,302.810 116.441,304.341 115.898 C 306.501 115.131,307.853 113.950,310.000 110.954 C 310.770 109.879,312.500 107.920,313.845 106.600 C 315.189 105.280,316.950 103.165,317.757 101.900 C 318.564 100.635,319.420 99.600,319.659 99.600 C 320.923 99.600,324.368 95.616,326.158 92.082 C 326.716 90.981,327.899 89.241,328.787 88.216 C 329.674 87.190,330.400 86.163,330.400 85.934 C 330.400 84.934,332.455 81.564,334.056 79.937 C 335.018 78.960,336.136 77.277,336.549 76.183 C 336.961 75.092,337.692 73.840,338.175 73.400 C 340.084 71.659,344.644 63.251,345.985 59.000 C 346.262 58.120,346.737 57.004,347.040 56.521 C 347.343 56.037,348.032 54.507,348.571 53.121 C 350.317 48.625,351.652 45.441,352.636 43.421 C 353.166 42.333,353.600 41.112,353.600 40.709 C 353.600 40.305,353.888 39.305,354.241 38.487 C 355.245 36.157,357.119 29.081,358.183 23.597 C 358.717 20.846,359.797 16.706,360.583 14.397 C 362.841 7.764,363.527 0.000,361.855 0.000 C 360.956 0.000,360.896 0.168,360.628 3.480 C 360.456 5.600,359.906 8.226,359.222 10.202 C 358.604 11.986,357.697 15.955,357.207 19.023 C 356.717 22.090,355.693 26.546,354.930 28.925 C 354.168 31.303,353.395 34.093,353.212 35.125 C 352.804 37.430,351.099 42.047,348.606 47.600 C 347.569 49.910,346.374 52.667,345.951 53.728 C 345.528 54.788,344.912 56.068,344.581 56.573 C 344.250 57.078,343.660 58.640,343.269 60.045 C 342.878 61.450,341.915 63.604,341.128 64.832 C 340.341 66.059,339.572 67.458,339.419 67.940 C 339.266 68.422,338.563 69.577,337.856 70.508 C 337.149 71.439,335.874 73.450,335.023 74.977 C 334.171 76.504,332.816 78.484,332.011 79.377 C 331.206 80.270,330.035 81.900,329.409 83.000 C 328.784 84.100,327.513 86.080,326.585 87.400 C 325.657 88.720,324.532 90.526,324.085 91.413 C 323.638 92.300,322.790 93.284,322.200 93.600 C 321.610 93.916,320.762 94.900,320.314 95.787 C 319.867 96.674,318.890 97.911,318.142 98.536 C 317.395 99.161,316.516 100.188,316.190 100.819 C 315.168 102.796,304.652 113.200,303.677 113.200 C 303.103 113.200,301.471 114.553,298.903 117.157 C 294.492 121.629,287.494 127.082,284.800 128.148 C 283.810 128.539,282.460 129.360,281.800 129.972 C 281.140 130.584,279.520 131.674,278.200 132.396 C 270.775 136.453,269.400 137.286,267.875 138.657 C 264.566 141.628,265.938 144.065,273.800 149.180 C 275.808 150.487,277.712 152.058,278.105 152.732 C 278.493 153.397,279.425 154.321,280.176 154.785 C 280.926 155.249,281.989 156.394,282.537 157.329 C 283.085 158.264,283.979 159.268,284.524 159.559 C 285.656 160.165,289.124 164.284,291.432 167.765 C 292.294 169.066,293.497 170.866,294.104 171.765 C 296.960 175.997,300.802 182.814,301.439 184.782 C 301.828 185.982,302.556 187.332,303.058 187.782 C 304.621 189.182,308.184 200.973,310.015 210.800 C 310.446 213.110,311.081 215.990,311.428 217.200 C 312.784 221.936,312.537 237.741,311.000 244.600 C 310.704 245.920,310.158 248.710,309.787 250.800 C 308.921 255.672,307.301 262.235,306.635 263.565 C 306.350 264.134,305.900 265.500,305.635 266.600 C 305.369 267.700,304.461 269.770,303.615 271.200 C 302.770 272.630,301.947 274.250,301.787 274.800 C 301.428 276.030,298.946 281.037,298.020 282.400 C 297.646 282.950,297.098 284.030,296.803 284.800 C 296.508 285.570,295.621 286.987,294.833 287.948 C 294.045 288.910,292.500 290.914,291.400 292.403 C 287.670 297.450,285.108 300.427,284.002 300.999 C 283.349 301.336,282.634 302.231,282.251 303.190 C 281.889 304.094,281.090 305.122,280.443 305.515 C 279.806 305.903,277.331 307.876,274.942 309.899 C 266.832 316.771,263.433 319.340,261.461 320.090 C 260.378 320.501,258.752 321.481,257.846 322.267 C 255.908 323.950,250.884 326.237,244.200 328.479 C 241.560 329.364,238.770 330.408,238.000 330.798 C 237.230 331.188,234.890 331.902,232.800 332.384 C 230.710 332.866,227.830 333.605,226.400 334.025 C 218.758 336.273,194.525 336.650,188.600 334.614 C 185.812 333.656,182.559 332.813,179.154 332.168 C 177.339 331.823,175.211 331.215,174.427 330.816 C 172.646 329.910,168.075 328.176,161.652 325.968 C 158.931 325.033,156.231 323.869,155.652 323.382 C 154.386 322.317,150.914 320.216,148.284 318.924 C 147.230 318.406,146.266 317.717,146.142 317.392 C 146.017 317.067,144.269 315.603,142.258 314.138 C 140.246 312.673,137.520 310.423,136.200 309.138 C 134.880 307.853,132.208 305.316,130.263 303.501 C 128.318 301.685,126.448 299.660,126.108 299.000 C 125.767 298.340,124.379 296.450,123.022 294.800 C 120.377 291.584,117.728 287.803,116.650 285.705 C 116.284 284.993,115.458 283.810,114.814 283.076 C 114.169 282.343,113.250 280.675,112.771 279.371 C 112.291 278.067,111.572 276.639,111.173 276.199 C 110.072 274.985,108.491 271.285,107.622 267.887 C 107.195 266.215,106.586 264.341,106.269 263.723 C 105.138 261.517,103.262 254.943,102.810 251.600 C 102.557 249.730,102.167 247.210,101.944 246.000 C 100.441 237.845,100.119 229.864,100.993 222.400 C 102.476 209.735,102.874 206.866,103.403 205.000 C 104.703 200.422,108.663 189.298,109.455 188.000 C 109.924 187.230,110.437 186.178,110.593 185.663 C 111.128 183.900,113.319 179.801,115.223 177.000 C 116.271 175.460,117.569 173.210,118.108 172.000 C 118.720 170.628,120.287 168.520,122.273 166.400 C 124.024 164.530,126.216 161.875,127.143 160.500 C 128.071 159.125,128.968 158.000,129.136 158.000 C 129.304 158.000,130.444 157.055,131.670 155.900 C 132.895 154.745,134.415 153.350,135.049 152.800 C 145.541 143.685,146.259 141.943,140.563 139.407 C 139.442 138.908,137.609 137.892,136.489 137.150 C 134.740 135.990,132.858 134.783,130.400 133.247 C 130.070 133.040,128.889 132.519,127.776 132.089 C 126.663 131.659,124.683 130.559,123.376 129.645 C 122.069 128.730,120.162 127.401,119.138 126.691 C 118.113 125.981,115.953 124.321,114.338 123.002 C 112.722 121.683,110.014 119.575,108.320 118.318 C 106.626 117.061,104.952 115.593,104.599 115.055 C 104.246 114.516,102.994 113.571,101.816 112.955 C 100.638 112.338,99.392 111.356,99.047 110.773 C 98.703 110.189,97.702 109.063,96.824 108.269 C 95.945 107.475,94.769 106.101,94.210 105.216 C 93.651 104.331,92.513 103.176,91.680 102.651 C 89.793 101.459,87.749 99.160,86.882 97.253 C 86.518 96.454,85.586 95.067,84.810 94.172 C 84.035 93.276,83.087 92.016,82.705 91.372 C 82.322 90.727,80.702 88.640,79.105 86.733 C 77.507 84.826,75.300 81.711,74.200 79.809 C 73.100 77.908,71.824 75.868,71.364 75.276 C 70.904 74.684,70.331 73.623,70.091 72.918 C 69.851 72.213,68.948 70.593,68.086 69.318 C 65.809 65.952,62.994 60.847,62.396 59.000 C 62.112 58.120,61.649 57.040,61.369 56.600 C 61.089 56.160,60.739 55.143,60.593 54.340 C 60.446 53.537,59.451 51.136,58.382 49.005 C 57.273 46.792,56.150 43.815,55.765 42.065 C 55.394 40.379,54.748 38.512,54.329 37.915 C 53.325 36.485,52.082 32.955,51.191 29.000 C 50.794 27.240,49.934 23.640,49.280 21.000 C 47.634 14.354,46.417 7.588,46.126 3.473 L 45.881 0.000 44.341 0.000 C 43.128 0.000,42.800 0.152,42.800 0.714 " stroke="none" fill="#d4d4d4" fill-rule="evenodd"></path><path id="path4" d="M0.000 200.000 L 0.000 400.000 200.000 400.000 L 400.000 400.000 400.000 200.000 L 400.000 0.000 381.485 0.000 L 362.969 0.000 362.510 5.100 C 362.149 9.107,361.740 11.099,360.602 14.397 C 359.806 16.706,358.717 20.846,358.183 23.597 C 357.119 29.081,355.245 36.157,354.241 38.487 C 353.888 39.305,353.600 40.305,353.600 40.709 C 353.600 41.112,353.166 42.333,352.636 43.421 C 351.652 45.441,350.317 48.625,348.571 53.121 C 348.032 54.507,347.343 56.037,347.040 56.521 C 346.737 57.004,346.262 58.120,345.985 59.000 C 344.644 63.251,340.084 71.659,338.175 73.400 C 337.692 73.840,336.961 75.092,336.549 76.183 C 336.136 77.277,335.018 78.960,334.056 79.937 C 332.455 81.564,330.400 84.934,330.400 85.934 C 330.400 86.163,329.674 87.190,328.787 88.216 C 327.899 89.241,326.716 90.981,326.158 92.082 C 324.368 95.616,320.923 99.600,319.659 99.600 C 319.420 99.600,318.564 100.635,317.757 101.900 C 316.950 103.165,315.189 105.280,313.845 106.600 C 312.500 107.920,310.770 109.879,310.000 110.954 C 307.853 113.950,306.501 115.131,304.341 115.898 C 302.810 116.441,301.967 117.102,300.623 118.813 C 299.628 120.079,297.540 121.940,295.742 123.163 C 294.014 124.339,292.060 125.793,291.400 126.393 C 289.707 127.932,286.854 129.800,285.030 130.562 C 284.177 130.918,282.741 131.889,281.839 132.719 C 280.835 133.644,278.599 134.912,276.064 135.994 C 266.794 139.949,266.674 143.570,275.662 148.108 C 276.465 148.513,277.492 149.240,277.943 149.723 C 278.393 150.205,279.851 151.733,281.181 153.117 C 282.511 154.501,283.600 155.777,283.600 155.953 C 283.600 156.128,284.028 156.467,284.552 156.705 C 285.821 157.284,292.189 164.715,293.081 166.660 C 293.470 167.507,294.466 168.990,295.294 169.956 C 296.122 170.922,296.800 171.846,296.800 172.009 C 296.800 172.172,297.969 174.351,299.398 176.852 C 300.827 179.354,301.997 181.604,301.998 181.853 C 301.999 182.101,302.628 182.784,303.395 183.369 C 305.212 184.755,305.506 185.363,306.160 189.086 C 306.461 190.799,307.178 193.082,307.754 194.160 C 308.329 195.237,308.800 196.366,308.800 196.667 C 308.800 196.968,309.232 198.453,309.761 199.966 C 310.290 201.479,310.937 204.400,311.199 206.458 C 311.462 208.516,312.016 211.551,312.431 213.202 C 314.677 222.131,314.570 236.670,312.164 249.400 C 310.111 260.269,309.843 261.383,308.805 263.365 C 308.219 264.484,307.506 266.480,307.221 267.800 C 306.935 269.120,305.734 272.048,304.551 274.306 C 303.368 276.565,302.400 278.884,302.400 279.459 C 302.400 280.140,301.903 280.974,300.978 281.847 C 300.195 282.585,299.294 283.956,298.974 284.894 C 298.654 285.832,297.295 287.860,295.954 289.400 C 294.613 290.940,293.226 292.650,292.871 293.200 C 292.516 293.750,291.185 295.600,289.913 297.312 C 288.641 299.023,287.600 300.521,287.600 300.640 C 287.600 301.276,281.575 307.806,280.269 308.586 C 279.428 309.088,277.950 310.251,276.986 311.170 C 276.022 312.088,274.101 313.662,272.717 314.667 C 271.333 315.671,269.390 317.262,268.400 318.201 C 267.410 319.140,265.892 320.134,265.026 320.409 C 264.161 320.685,262.460 321.719,261.246 322.708 C 259.248 324.335,255.741 326.202,253.178 327.002 C 252.640 327.170,251.118 327.816,249.796 328.437 C 248.474 329.059,246.404 329.777,245.196 330.033 C 243.988 330.290,242.190 330.905,241.200 331.400 C 240.210 331.896,238.770 332.427,238.000 332.581 C 237.230 332.734,236.006 333.129,235.281 333.458 C 234.555 333.787,232.258 334.488,230.177 335.016 C 228.095 335.544,226.015 336.178,225.554 336.424 C 222.603 338.004,190.047 337.208,184.666 335.424 C 182.942 334.853,180.242 334.192,178.666 333.954 C 174.324 333.301,171.132 332.401,169.800 331.453 C 168.141 330.274,164.867 328.914,160.544 327.608 C 155.937 326.217,151.013 323.481,150.384 321.961 C 150.024 321.092,149.573 320.799,148.263 320.583 C 146.106 320.225,145.339 319.822,143.400 318.021 C 142.520 317.205,140.810 315.846,139.600 315.001 C 138.390 314.157,135.807 311.787,133.861 309.733 C 131.914 307.680,130.113 306.000,129.857 306.000 C 129.185 306.000,127.305 304.163,126.618 302.836 C 126.295 302.209,125.761 301.594,125.433 301.468 C 125.105 301.342,124.479 300.555,124.041 299.719 C 123.604 298.884,122.140 296.940,120.787 295.400 C 119.435 293.860,117.909 291.790,117.396 290.800 C 116.395 288.868,112.959 283.525,110.507 280.089 C 109.118 278.143,107.855 274.965,105.465 267.400 C 104.979 265.860,104.289 264.150,103.933 263.600 C 99.759 257.154,97.081 228.508,99.597 217.215 C 100.043 215.212,100.566 211.374,100.760 208.686 C 101.089 204.111,101.251 203.444,103.307 198.200 C 104.514 195.120,105.729 191.880,106.006 191.000 C 106.284 190.120,106.834 188.939,107.229 188.376 C 107.624 187.812,108.076 186.822,108.234 186.176 C 108.496 185.103,108.973 184.072,111.866 178.320 C 112.386 177.286,112.997 176.326,113.222 176.186 C 113.903 175.765,115.423 173.125,116.208 171.000 C 117.173 168.386,118.750 166.393,121.568 164.224 C 122.982 163.136,124.384 161.576,125.230 160.150 C 126.556 157.913,128.136 156.172,130.883 153.921 C 134.890 150.637,136.264 149.368,136.847 148.414 C 137.203 147.831,138.244 146.732,139.159 145.971 C 141.745 143.823,141.633 142.583,138.710 141.023 C 137.451 140.350,135.869 139.298,135.196 138.684 C 134.523 138.071,132.425 136.773,130.535 135.800 C 128.645 134.827,126.806 133.788,126.449 133.491 C 126.092 133.193,125.027 132.615,124.081 132.206 C 123.136 131.796,122.236 131.268,122.081 131.031 C 121.927 130.794,120.540 129.738,119.000 128.685 C 108.725 121.657,106.830 120.203,102.077 115.700 C 100.858 114.545,99.661 113.600,99.418 113.600 C 98.884 113.600,94.870 109.510,93.650 107.724 C 93.171 107.022,92.383 106.321,91.898 106.168 C 89.650 105.454,85.240 100.444,83.829 97.000 C 83.469 96.120,82.945 95.220,82.666 95.000 C 82.386 94.780,81.548 93.700,80.803 92.600 C 80.058 91.500,78.519 89.429,77.385 87.997 C 76.250 86.566,74.997 84.766,74.601 83.997 C 74.205 83.229,73.478 82.060,72.985 81.400 C 72.492 80.740,71.532 79.088,70.853 77.729 C 70.174 76.370,69.431 75.143,69.203 75.002 C 68.975 74.861,68.434 74.050,68.000 73.199 C 67.566 72.349,66.772 71.179,66.236 70.601 C 64.583 68.817,61.252 62.569,60.433 59.713 C 59.087 55.024,57.903 51.849,56.960 50.400 C 56.459 49.630,55.928 48.460,55.781 47.800 C 55.634 47.140,54.926 45.430,54.207 44.000 C 53.489 42.570,52.406 39.690,51.800 37.600 C 51.194 35.510,50.463 33.336,50.175 32.769 C 49.887 32.203,49.385 30.223,49.060 28.369 C 48.735 26.516,48.014 23.650,47.458 22.000 C 46.902 20.350,46.256 17.830,46.023 16.400 C 45.789 14.970,45.263 12.720,44.853 11.400 C 44.443 10.080,43.776 6.975,43.370 4.500 L 42.632 0.000 21.316 0.000 L 0.000 0.000 0.000 200.000 " stroke="none" fill="#bcbcbc" fill-rule="evenodd"></path></g></svg>