<?xml version="1.0" encoding="UTF-8"?>
<svg xmlns="http://www.w3.org/2000/svg" xmlns:xlink="http://www.w3.org/1999/xlink" width="85pt" height="85pt" viewBox="0 0 85 85" version="1.1">
<g id="surface1">
<path style=" stroke:none;fill-rule:evenodd;fill:rgb(98.431373%,98.431373%,98.431373%);fill-opacity:1;" d="M 10.453125 0.636719 C 10.453125 1.640625 10.679688 3.003906 11.160156 4.886719 C 11.277344 5.355469 11.414062 5.960938 11.464844 6.238281 C 11.515625 6.511719 11.628906 6.894531 11.71875 7.085938 C 11.902344 7.476562 12.117188 8.148438 12.183594 8.550781 C 12.210938 8.695312 12.347656 9 12.488281 9.230469 C 12.753906 9.660156 13.277344 10.828125 13.472656 11.433594 C 13.667969 12.046875 14.125 12.929688 15.0625 14.503906 C 15.285156 14.882812 15.515625 15.320312 15.570312 15.480469 C 15.625 15.636719 15.757812 15.886719 15.867188 16.03125 C 15.976562 16.175781 16.105469 16.414062 16.15625 16.5625 C 16.210938 16.710938 16.285156 16.828125 16.324219 16.828125 C 16.363281 16.828125 16.578125 17.089844 16.796875 17.402344 C 17.019531 17.71875 17.441406 18.207031 17.734375 18.488281 C 18.140625 18.878906 18.289062 19.085938 18.367188 19.378906 C 18.445312 19.667969 18.550781 19.820312 18.800781 19.996094 C 18.980469 20.128906 19.15625 20.292969 19.183594 20.367188 C 19.210938 20.441406 19.78125 21.050781 20.453125 21.722656 C 21.121094 22.394531 21.785156 23.101562 21.925781 23.296875 C 22.175781 23.644531 23.019531 24.390625 23.671875 24.84375 C 24.382812 25.335938 24.59375 25.507812 25.148438 26.027344 C 25.460938 26.320312 25.945312 26.691406 26.222656 26.84375 C 26.503906 27 27.039062 27.316406 27.414062 27.542969 C 27.785156 27.773438 28.320312 28.078125 28.601562 28.226562 C 28.882812 28.375 29.171875 28.546875 29.242188 28.609375 C 29.316406 28.671875 29.773438 28.902344 30.261719 29.117188 C 32.046875 29.910156 32.085938 30.367188 30.464844 31.707031 C 30.152344 31.960938 29.679688 32.382812 29.414062 32.640625 C 29.144531 32.898438 28.617188 33.371094 28.238281 33.691406 C 27.859375 34.011719 27.441406 34.433594 27.3125 34.625 C 27.183594 34.820312 26.835938 35.261719 26.542969 35.609375 C 26.25 35.957031 26.011719 36.292969 26.011719 36.355469 C 26.011719 36.539062 25.769531 36.957031 25.46875 37.300781 C 25.316406 37.472656 25.082031 37.804688 24.949219 38.039062 C 24.816406 38.269531 24.597656 38.601562 24.464844 38.773438 C 24.332031 38.945312 24.167969 39.234375 24.105469 39.421875 C 24.039062 39.605469 23.832031 40.082031 23.640625 40.476562 C 23.402344 40.984375 23.261719 41.425781 23.171875 41.976562 C 23.105469 42.40625 22.972656 42.878906 22.878906 43.03125 C 22.636719 43.425781 22.460938 44.109375 22.351562 45.09375 C 22.296875 45.558594 22.195312 46.421875 22.125 47.003906 C 22.054688 47.589844 21.980469 48.316406 21.957031 48.621094 C 21.910156 49.277344 22.214844 51.582031 22.394531 51.929688 C 22.488281 52.109375 22.503906 52.34375 22.46875 52.882812 C 22.414062 53.621094 22.558594 54.378906 22.828125 54.796875 C 22.933594 54.964844 23.078125 55.433594 23.429688 56.78125 C 23.496094 57.039062 23.640625 57.4375 23.753906 57.671875 C 23.863281 57.90625 24.015625 58.257812 24.085938 58.453125 C 24.160156 58.648438 24.382812 58.976562 24.582031 59.179688 C 24.8125 59.410156 25.019531 59.738281 25.140625 60.0625 C 25.320312 60.539062 25.613281 60.964844 26.886719 62.589844 C 27.113281 62.878906 27.449219 63.3125 27.632812 63.558594 C 27.832031 63.824219 28.152344 64.109375 28.414062 64.261719 C 28.675781 64.410156 29.039062 64.734375 29.300781 65.058594 C 29.707031 65.554688 30.1875 65.949219 31.59375 66.929688 C 31.863281 67.121094 32.109375 67.371094 32.160156 67.503906 C 32.210938 67.636719 32.3125 67.746094 32.382812 67.746094 C 32.6875 67.746094 33.171875 67.941406 33.429688 68.164062 C 33.78125 68.46875 34.304688 68.695312 35.105469 68.890625 C 35.460938 68.976562 35.847656 69.132812 35.984375 69.246094 C 36.113281 69.355469 36.332031 69.445312 36.464844 69.445312 C 36.597656 69.445312 36.96875 69.574219 37.285156 69.734375 C 37.984375 70.085938 38.488281 70.195312 39.78125 70.289062 C 40.460938 70.339844 40.949219 70.425781 41.394531 70.582031 C 42.625 71.007812 45.046875 71.03125 46.246094 70.632812 C 46.757812 70.460938 47.835938 70.292969 48.703125 70.25 C 49.324219 70.21875 49.929688 70.042969 50.46875 69.730469 C 50.667969 69.617188 51.03125 69.5 51.277344 69.472656 C 51.523438 69.445312 51.855469 69.355469 52.019531 69.269531 C 52.183594 69.183594 52.566406 69 52.871094 68.859375 C 53.632812 68.503906 54.742188 67.835938 55.136719 67.496094 C 55.316406 67.34375 55.773438 67.019531 56.15625 66.773438 C 57.183594 66.125 58.089844 65.410156 58.902344 64.621094 C 59.296875 64.234375 59.652344 63.921875 59.6875 63.921875 C 59.726562 63.921875 59.8125 63.777344 59.882812 63.601562 C 59.957031 63.417969 60.144531 63.191406 60.324219 63.070312 C 61.085938 62.550781 62.898438 60.042969 62.898438 59.511719 C 62.898438 59.339844 63.226562 58.757812 63.488281 58.457031 C 63.640625 58.285156 63.789062 57.964844 63.878906 57.625 C 63.957031 57.324219 64.085938 56.960938 64.171875 56.824219 C 64.367188 56.492188 64.8125 54.980469 64.980469 54.066406 C 65.054688 53.671875 65.148438 53.214844 65.191406 53.046875 C 65.828125 50.621094 66.011719 47.671875 65.597656 46.488281 C 65.460938 46.101562 65.335938 45.503906 65.289062 45 C 65.234375 44.441406 65.066406 43.65625 64.78125 42.671875 C 64.210938 40.683594 64.078125 40.332031 63.761719 40.003906 C 63.617188 39.855469 63.496094 39.671875 63.496094 39.601562 C 63.496094 39.410156 62.699219 37.839844 62.355469 37.359375 C 62.1875 37.125 61.984375 36.824219 61.902344 36.691406 C 61.820312 36.558594 61.570312 36.210938 61.351562 35.925781 C 61.128906 35.636719 60.824219 35.234375 60.671875 35.03125 C 60.519531 34.828125 60.292969 34.597656 60.175781 34.523438 C 59.972656 34.390625 59.6875 34.082031 58.671875 32.882812 C 58.449219 32.617188 58.132812 32.335938 57.96875 32.253906 C 57.691406 32.109375 56.613281 31.253906 56.085938 30.753906 C 55.84375 30.527344 55.75 29.925781 55.894531 29.542969 C 55.964844 29.371094 56.972656 28.636719 57.464844 28.402344 C 58.214844 28.046875 58.699219 27.730469 59.121094 27.320312 C 59.554688 26.894531 60.382812 26.351562 60.589844 26.351562 C 60.847656 26.351562 62.417969 25.199219 62.882812 24.671875 C 63.148438 24.371094 63.472656 24.070312 63.605469 24 C 63.734375 23.933594 63.941406 23.765625 64.0625 23.625 C 64.1875 23.488281 64.46875 23.257812 64.691406 23.117188 C 64.910156 22.976562 65.234375 22.679688 65.402344 22.457031 C 65.574219 22.238281 65.894531 21.921875 66.113281 21.761719 C 66.371094 21.570312 66.597656 21.296875 66.746094 21.003906 C 67.042969 20.414062 67.191406 20.253906 67.507812 20.183594 C 67.714844 20.136719 67.800781 20.039062 67.996094 19.605469 C 68.125 19.316406 68.296875 19.023438 68.382812 18.953125 C 68.539062 18.828125 68.863281 18.363281 69.488281 17.371094 C 69.824219 16.835938 70.289062 16.195312 70.5625 15.894531 C 70.640625 15.808594 70.785156 15.558594 70.882812 15.335938 C 70.984375 15.113281 71.203125 14.761719 71.375 14.550781 C 71.546875 14.34375 71.753906 13.960938 71.839844 13.699219 C 71.925781 13.441406 72.054688 13.167969 72.121094 13.089844 C 72.191406 13.011719 72.320312 12.742188 72.410156 12.488281 C 72.796875 11.402344 73.015625 10.875 73.398438 10.113281 C 73.84375 9.230469 74.460938 7.65625 74.460938 7.40625 C 74.460938 7.316406 74.519531 7.078125 74.59375 6.875 C 75.015625 5.722656 75.234375 4.765625 75.28125 3.910156 C 75.316406 3.191406 75.382812 2.84375 75.625 2.125 C 75.8125 1.574219 75.941406 0.996094 75.96875 0.617188 L 76.011719 0 L 10.453125 0 L 10.453125 0.636719 "/>
<path style=" stroke:none;fill-rule:evenodd;fill:rgb(89.411765%,89.411765%,89.411765%);fill-opacity:1;" d="M 10.003906 0.574219 C 10.066406 1.480469 10.519531 4.136719 10.746094 4.929688 C 10.863281 5.328125 11 5.878906 11.054688 6.15625 C 11.164062 6.722656 11.496094 7.640625 11.695312 7.949219 C 11.769531 8.058594 11.886719 8.421875 11.953125 8.753906 C 12.027344 9.109375 12.261719 9.726562 12.53125 10.265625 C 12.78125 10.769531 13.007812 11.300781 13.035156 11.453125 C 13.109375 11.851562 13.929688 13.515625 14.496094 14.40625 C 14.761719 14.828125 15.035156 15.324219 15.101562 15.511719 C 15.167969 15.695312 15.289062 15.925781 15.375 16.019531 C 15.457031 16.113281 15.664062 16.441406 15.832031 16.746094 C 16.179688 17.378906 16.585938 17.917969 17.265625 18.652344 C 17.527344 18.933594 17.824219 19.328125 17.921875 19.519531 C 18.019531 19.714844 18.203125 19.953125 18.328125 20.050781 C 18.453125 20.148438 18.640625 20.417969 18.746094 20.644531 C 18.855469 20.882812 19.074219 21.164062 19.261719 21.304688 C 19.441406 21.4375 19.703125 21.675781 19.84375 21.828125 C 19.988281 21.984375 20.355469 22.390625 20.664062 22.726562 C 20.972656 23.0625 21.269531 23.425781 21.324219 23.527344 C 21.378906 23.628906 21.585938 23.796875 21.78125 23.894531 C 21.976562 23.996094 22.347656 24.273438 22.605469 24.519531 C 22.867188 24.761719 23.210938 25.050781 23.375 25.160156 C 23.667969 25.359375 24.015625 25.640625 24.800781 26.316406 C 25.386719 26.820312 26.90625 27.796875 27.398438 27.984375 C 27.632812 28.074219 27.921875 28.222656 28.042969 28.316406 C 28.4375 28.625 29.179688 29.058594 29.960938 29.4375 C 31.273438 30.074219 31.269531 30.371094 29.9375 31.566406 C 29.4375 32.015625 28.980469 32.457031 28.921875 32.550781 C 28.863281 32.644531 28.699219 32.78125 28.554688 32.855469 C 28.261719 33.007812 27.273438 34.023438 26.949219 34.5 C 26.835938 34.667969 26.480469 35.09375 26.15625 35.445312 C 25.832031 35.796875 25.441406 36.335938 25.285156 36.640625 C 25.128906 36.949219 24.820312 37.464844 24.597656 37.789062 C 24.375 38.113281 24.027344 38.742188 23.820312 39.183594 C 23.613281 39.628906 23.394531 40.050781 23.332031 40.121094 C 23.273438 40.191406 23.082031 40.742188 22.910156 41.347656 C 22.734375 41.953125 22.480469 42.734375 22.34375 43.085938 C 22.191406 43.464844 22.058594 44.011719 22.007812 44.449219 C 21.960938 44.847656 21.871094 45.578125 21.800781 46.070312 C 21.449219 48.65625 21.441406 49.273438 21.722656 51.171875 C 21.789062 51.613281 21.898438 52.445312 21.964844 53.019531 C 22.078125 53.976562 22.386719 55.097656 22.824219 56.140625 C 22.882812 56.28125 22.980469 56.609375 23.039062 56.863281 C 23.144531 57.339844 23.320312 57.75 23.84375 58.734375 C 24.003906 59.039062 24.136719 59.355469 24.136719 59.4375 C 24.136719 59.523438 24.273438 59.726562 24.4375 59.886719 C 24.601562 60.050781 24.847656 60.40625 24.984375 60.671875 C 25.125 60.9375 25.429688 61.40625 25.667969 61.710938 C 25.902344 62.015625 26.316406 62.5625 26.585938 62.929688 C 27.195312 63.761719 28.082031 64.722656 28.453125 64.953125 C 28.609375 65.050781 28.996094 65.382812 29.308594 65.691406 C 29.621094 66.003906 30.125 66.4375 30.429688 66.660156 C 30.734375 66.882812 31.269531 67.285156 31.621094 67.558594 C 31.96875 67.832031 32.355469 68.082031 32.472656 68.109375 C 32.589844 68.140625 32.894531 68.316406 33.148438 68.507812 C 33.484375 68.757812 33.894531 68.945312 34.675781 69.195312 C 35.851562 69.578125 36.671875 69.886719 37.179688 70.144531 C 37.363281 70.238281 37.976562 70.40625 38.539062 70.515625 C 39.105469 70.628906 39.738281 70.777344 39.949219 70.84375 C 41.078125 71.203125 44.585938 71.363281 46.113281 71.121094 C 46.578125 71.046875 47.167969 70.960938 47.421875 70.933594 C 47.675781 70.902344 47.960938 70.839844 48.054688 70.789062 C 48.152344 70.738281 48.617188 70.628906 49.097656 70.546875 C 49.609375 70.460938 50.199219 70.292969 50.546875 70.136719 C 50.867188 69.992188 51.496094 69.757812 51.945312 69.617188 C 52.996094 69.285156 54.0625 68.785156 54.652344 68.34375 C 54.90625 68.152344 55.269531 67.949219 55.457031 67.894531 C 55.644531 67.835938 55.957031 67.636719 56.148438 67.449219 C 56.339844 67.261719 56.742188 66.9375 57.039062 66.726562 C 57.667969 66.285156 59.15625 65.03125 59.566406 64.601562 C 61.3125 62.761719 62.601562 61.09375 63.128906 59.988281 C 63.328125 59.574219 63.566406 59.125 63.664062 58.988281 C 63.761719 58.851562 63.914062 58.53125 64.003906 58.273438 C 64.09375 58.015625 64.300781 57.570312 64.46875 57.289062 C 64.632812 57.003906 64.773438 56.707031 64.773438 56.625 C 64.777344 56.546875 64.835938 56.328125 64.90625 56.140625 C 64.976562 55.957031 65.105469 55.515625 65.199219 55.164062 C 66.203125 51.296875 66.441406 48.144531 65.902344 45.773438 C 65.753906 45.117188 65.585938 44.316406 65.53125 43.988281 C 65.4375 43.449219 65.085938 42.222656 64.601562 40.714844 C 64.503906 40.410156 64.332031 40.066406 64.21875 39.949219 C 64.109375 39.832031 63.992188 39.621094 63.960938 39.484375 C 63.882812 39.144531 63.085938 37.714844 62.445312 36.761719 C 62.164062 36.339844 61.777344 35.769531 61.585938 35.488281 C 61.398438 35.207031 60.960938 34.691406 60.617188 34.339844 C 60.273438 33.988281 59.941406 33.601562 59.875 33.476562 C 59.8125 33.351562 59.628906 33.171875 59.46875 33.074219 C 59.3125 32.976562 59.089844 32.757812 58.980469 32.59375 C 58.867188 32.425781 58.472656 32.085938 58.097656 31.835938 C 56.363281 30.683594 55.828125 29.976562 56.417969 29.609375 C 56.546875 29.53125 56.765625 29.363281 56.90625 29.238281 C 57.046875 29.113281 57.660156 28.730469 58.265625 28.390625 C 58.875 28.050781 59.539062 27.625 59.746094 27.441406 C 59.953125 27.261719 60.261719 27.070312 60.4375 27.019531 C 60.898438 26.882812 62.210938 25.882812 63.207031 24.910156 C 63.683594 24.445312 64.230469 23.988281 64.421875 23.890625 C 64.863281 23.664062 66.789062 21.75 67.082031 21.246094 C 67.207031 21.035156 67.40625 20.808594 67.53125 20.738281 C 67.65625 20.671875 67.859375 20.445312 67.976562 20.234375 C 68.097656 20.019531 68.300781 19.734375 68.429688 19.59375 C 68.554688 19.453125 68.949219 18.898438 69.304688 18.359375 C 69.660156 17.824219 70.132812 17.144531 70.355469 16.851562 C 70.578125 16.5625 70.898438 16.074219 71.066406 15.769531 C 71.234375 15.464844 71.457031 15.121094 71.5625 15.011719 C 71.8125 14.746094 72.636719 13.109375 72.800781 12.558594 C 72.871094 12.320312 72.984375 12.039062 73.054688 11.933594 C 73.125 11.828125 73.253906 11.558594 73.34375 11.332031 C 73.433594 11.105469 73.6875 10.519531 73.910156 10.03125 C 74.355469 9.042969 74.886719 7.601562 74.886719 7.382812 C 74.886719 7.304688 75.023438 6.804688 75.191406 6.277344 C 75.488281 5.332031 75.644531 4.628906 75.820312 3.441406 C 75.867188 3.117188 76.015625 2.464844 76.152344 1.996094 C 76.285156 1.53125 76.417969 0.890625 76.445312 0.574219 L 76.492188 0 L 76.253906 0 C 76.015625 0 76.011719 0.0078125 75.96875 0.617188 C 75.941406 0.996094 75.8125 1.574219 75.625 2.125 C 75.382812 2.84375 75.316406 3.191406 75.28125 3.910156 C 75.234375 4.765625 75.015625 5.722656 74.59375 6.875 C 74.519531 7.078125 74.460938 7.316406 74.460938 7.40625 C 74.460938 7.65625 73.84375 9.230469 73.398438 10.113281 C 73.015625 10.875 72.796875 11.402344 72.410156 12.488281 C 72.320312 12.742188 72.191406 13.011719 72.121094 13.089844 C 72.054688 13.167969 71.925781 13.441406 71.839844 13.699219 C 71.753906 13.960938 71.546875 14.34375 71.375 14.550781 C 71.203125 14.761719 70.984375 15.113281 70.882812 15.335938 C 70.785156 15.558594 70.640625 15.808594 70.5625 15.894531 C 70.289062 16.195312 69.824219 16.835938 69.488281 17.371094 C 68.863281 18.363281 68.539062 18.828125 68.382812 18.953125 C 68.296875 19.023438 68.125 19.316406 67.996094 19.605469 C 67.800781 20.039062 67.714844 20.136719 67.507812 20.183594 C 67.191406 20.253906 67.042969 20.414062 66.746094 21.003906 C 66.597656 21.296875 66.371094 21.570312 66.113281 21.761719 C 65.894531 21.921875 65.574219 22.238281 65.402344 22.457031 C 65.234375 22.679688 64.910156 22.976562 64.691406 23.117188 C 64.46875 23.257812 64.1875 23.488281 64.0625 23.625 C 63.941406 23.765625 63.734375 23.933594 63.605469 24 C 63.472656 24.070312 63.148438 24.371094 62.882812 24.671875 C 62.417969 25.199219 60.847656 26.351562 60.589844 26.351562 C 60.382812 26.351562 59.554688 26.894531 59.121094 27.320312 C 58.699219 27.730469 58.214844 28.046875 57.464844 28.402344 C 56.972656 28.636719 55.964844 29.371094 55.894531 29.542969 C 55.75 29.925781 55.84375 30.527344 56.085938 30.753906 C 56.613281 31.253906 57.691406 32.109375 57.96875 32.253906 C 58.132812 32.335938 58.449219 32.617188 58.671875 32.882812 C 59.6875 34.082031 59.972656 34.390625 60.175781 34.523438 C 60.292969 34.597656 60.519531 34.828125 60.671875 35.03125 C 60.824219 35.234375 61.128906 35.636719 61.351562 35.925781 C 61.570312 36.210938 61.820312 36.558594 61.902344 36.691406 C 61.984375 36.824219 62.1875 37.125 62.355469 37.359375 C 62.699219 37.839844 63.496094 39.410156 63.496094 39.601562 C 63.496094 39.671875 63.617188 39.855469 63.761719 40.003906 C 64.078125 40.332031 64.210938 40.683594 64.78125 42.671875 C 65.066406 43.65625 65.234375 44.441406 65.289062 45 C 65.335938 45.503906 65.460938 46.101562 65.597656 46.488281 C 66.011719 47.671875 65.828125 50.621094 65.191406 53.046875 C 65.148438 53.214844 65.054688 53.671875 64.980469 54.066406 C 64.8125 54.980469 64.367188 56.492188 64.171875 56.824219 C 64.085938 56.960938 63.957031 57.324219 63.878906 57.625 C 63.789062 57.964844 63.640625 58.285156 63.488281 58.457031 C 63.226562 58.757812 62.898438 59.339844 62.898438 59.511719 C 62.898438 60.042969 61.085938 62.550781 60.324219 63.070312 C 60.144531 63.191406 59.957031 63.417969 59.882812 63.601562 C 59.8125 63.777344 59.726562 63.921875 59.6875 63.921875 C 59.652344 63.921875 59.296875 64.234375 58.902344 64.621094 C 58.089844 65.410156 57.183594 66.125 56.15625 66.773438 C 55.773438 67.019531 55.316406 67.34375 55.136719 67.496094 C 54.742188 67.835938 53.632812 68.503906 52.871094 68.859375 C 52.566406 69 52.183594 69.183594 52.019531 69.269531 C 51.855469 69.355469 51.523438 69.445312 51.277344 69.472656 C 51.03125 69.5 50.667969 69.617188 50.46875 69.730469 C 49.929688 70.042969 49.324219 70.21875 48.703125 70.25 C 47.835938 70.292969 46.757812 70.460938 46.246094 70.632812 C 45.046875 71.03125 42.625 71.007812 41.394531 70.582031 C 40.949219 70.425781 40.460938 70.339844 39.78125 70.289062 C 38.488281 70.195312 37.984375 70.085938 37.285156 69.734375 C 36.96875 69.574219 36.597656 69.445312 36.464844 69.445312 C 36.332031 69.445312 36.113281 69.355469 35.984375 69.246094 C 35.847656 69.132812 35.460938 68.976562 35.105469 68.890625 C 34.304688 68.695312 33.78125 68.46875 33.429688 68.164062 C 33.171875 67.941406 32.6875 67.746094 32.382812 67.746094 C 32.3125 67.746094 32.210938 67.636719 32.160156 67.503906 C 32.109375 67.371094 31.863281 67.121094 31.59375 66.929688 C 30.1875 65.949219 29.707031 65.554688 29.300781 65.058594 C 29.039062 64.734375 28.675781 64.410156 28.414062 64.261719 C 28.152344 64.109375 27.832031 63.824219 27.632812 63.558594 C 27.449219 63.3125 27.113281 62.878906 26.886719 62.589844 C 25.613281 60.964844 25.320312 60.539062 25.140625 60.0625 C 25.019531 59.738281 24.8125 59.410156 24.582031 59.179688 C 24.382812 58.976562 24.160156 58.648438 24.085938 58.453125 C 24.015625 58.257812 23.863281 57.90625 23.753906 57.671875 C 23.644531 57.4375 23.46875 56.941406 23.371094 56.566406 C 23.269531 56.195312 23.136719 55.6875 23.070312 55.4375 C 23.003906 55.191406 22.894531 54.90625 22.828125 54.800781 C 22.558594 54.378906 22.414062 53.625 22.46875 52.882812 C 22.503906 52.34375 22.488281 52.109375 22.394531 51.929688 C 22.214844 51.582031 21.910156 49.277344 21.957031 48.621094 C 21.980469 48.316406 22.054688 47.589844 22.125 47.003906 C 22.195312 46.421875 22.296875 45.558594 22.351562 45.09375 C 22.460938 44.109375 22.636719 43.425781 22.878906 43.03125 C 22.972656 42.878906 23.105469 42.40625 23.171875 41.976562 C 23.261719 41.425781 23.402344 40.984375 23.640625 40.476562 C 23.832031 40.082031 24.039062 39.605469 24.105469 39.421875 C 24.167969 39.234375 24.332031 38.945312 24.464844 38.773438 C 24.597656 38.601562 24.816406 38.269531 24.949219 38.039062 C 25.082031 37.804688 25.316406 37.472656 25.46875 37.300781 C 25.769531 36.957031 26.011719 36.539062 26.011719 36.355469 C 26.011719 36.292969 26.25 35.957031 26.542969 35.609375 C 26.835938 35.261719 27.183594 34.820312 27.3125 34.625 C 27.441406 34.433594 27.859375 34.011719 28.238281 33.691406 C 28.617188 33.371094 29.144531 32.898438 29.414062 32.640625 C 29.679688 32.382812 30.152344 31.960938 30.464844 31.707031 C 32.085938 30.367188 32.046875 29.910156 30.261719 29.117188 C 29.773438 28.902344 29.316406 28.671875 29.242188 28.609375 C 29.171875 28.546875 28.882812 28.375 28.601562 28.226562 C 28.320312 28.078125 27.785156 27.773438 27.414062 27.542969 C 27.039062 27.316406 26.503906 27 26.222656 26.84375 C 25.945312 26.691406 25.460938 26.320312 25.148438 26.027344 C 24.59375 25.507812 24.382812 25.335938 23.671875 24.84375 C 23.019531 24.390625 22.175781 23.644531 21.925781 23.296875 C 21.785156 23.101562 21.121094 22.394531 20.453125 21.722656 C 19.78125 21.050781 19.210938 20.441406 19.183594 20.367188 C 19.15625 20.292969 18.980469 20.128906 18.800781 19.996094 C 18.550781 19.820312 18.445312 19.667969 18.367188 19.378906 C 18.289062 19.085938 18.140625 18.878906 17.734375 18.488281 C 17.441406 18.207031 17.019531 17.71875 16.796875 17.402344 C 16.578125 17.089844 16.363281 16.828125 16.324219 16.828125 C 16.285156 16.828125 16.210938 16.710938 16.15625 16.5625 C 16.105469 16.414062 15.976562 16.175781 15.867188 16.03125 C 15.757812 15.886719 15.625 15.636719 15.570312 15.480469 C 15.515625 15.320312 15.285156 14.882812 15.0625 14.503906 C 14.125 12.929688 13.667969 12.046875 13.472656 11.433594 C 13.277344 10.828125 12.753906 9.660156 12.488281 9.230469 C 12.347656 9 12.210938 8.695312 12.183594 8.550781 C 12.117188 8.148438 11.902344 7.476562 11.71875 7.085938 C 11.628906 6.894531 11.515625 6.511719 11.464844 6.238281 C 11.414062 5.960938 11.277344 5.355469 11.160156 4.886719 C 10.679688 3.003906 10.453125 1.640625 10.453125 0.636719 L 10.453125 0 L 9.964844 0 L 10.003906 0.574219 "/>
<path style=" stroke:none;fill-rule:evenodd;fill:rgb(86.27451%,86.27451%,86.27451%);fill-opacity:1;" d="M 9.800781 0.738281 C 9.863281 1.613281 10.121094 3.050781 10.472656 4.460938 C 10.609375 5.023438 10.792969 5.789062 10.878906 6.164062 C 11.066406 7.003906 11.332031 7.753906 11.542969 8.058594 C 11.632812 8.183594 11.769531 8.582031 11.851562 8.9375 C 11.933594 9.3125 12.171875 9.941406 12.40625 10.414062 C 12.632812 10.867188 12.84375 11.375 12.875 11.546875 C 12.90625 11.71875 12.980469 11.933594 13.039062 12.027344 C 13.101562 12.121094 13.199219 12.351562 13.257812 12.539062 C 13.386719 12.929688 13.984375 14.015625 14.46875 14.730469 C 14.652344 15 14.84375 15.34375 14.894531 15.496094 C 14.945312 15.644531 15.066406 15.871094 15.164062 15.996094 C 15.261719 16.121094 15.535156 16.554688 15.765625 16.960938 C 16 17.363281 16.46875 18.027344 16.808594 18.429688 C 17.148438 18.835938 17.492188 19.28125 17.574219 19.417969 C 17.65625 19.554688 17.859375 19.820312 18.023438 20.011719 C 18.1875 20.203125 18.386719 20.496094 18.460938 20.667969 C 18.648438 21.070312 19.082031 21.558594 19.480469 21.8125 C 19.660156 21.925781 19.902344 22.171875 20.019531 22.359375 C 20.136719 22.546875 20.386719 22.839844 20.574219 23.007812 C 20.761719 23.175781 20.972656 23.414062 21.046875 23.539062 C 21.121094 23.664062 21.386719 23.871094 21.636719 24.003906 C 21.886719 24.132812 22.152344 24.335938 22.226562 24.449219 C 22.300781 24.5625 22.65625 24.875 23.019531 25.140625 C 23.378906 25.410156 23.953125 25.859375 24.296875 26.136719 C 24.640625 26.417969 25.097656 26.769531 25.316406 26.921875 C 25.535156 27.074219 25.941406 27.355469 26.21875 27.550781 C 26.496094 27.742188 26.914062 27.976562 27.152344 28.070312 C 27.390625 28.160156 27.640625 28.269531 27.710938 28.316406 C 28.230469 28.640625 28.632812 28.898438 29.003906 29.144531 C 29.242188 29.300781 29.632812 29.519531 29.871094 29.625 C 31.078125 30.164062 30.925781 30.53125 28.699219 32.46875 C 28.5625 32.585938 28.238281 32.882812 27.980469 33.128906 C 27.71875 33.375 27.476562 33.574219 27.441406 33.574219 C 27.40625 33.574219 27.214844 33.8125 27.019531 34.105469 C 26.820312 34.398438 26.355469 34.960938 25.984375 35.359375 C 25.5625 35.808594 25.226562 36.257812 25.097656 36.550781 C 24.984375 36.808594 24.707031 37.285156 24.484375 37.613281 C 24.082031 38.207031 23.613281 39.078125 23.5 39.453125 C 23.46875 39.5625 23.359375 39.785156 23.257812 39.949219 C 23.089844 40.226562 22.25 42.589844 21.972656 43.5625 C 21.859375 43.960938 21.777344 44.570312 21.460938 47.261719 C 21.273438 48.847656 21.34375 50.542969 21.664062 52.273438 C 21.710938 52.53125 21.792969 53.066406 21.847656 53.464844 C 21.941406 54.175781 22.34375 55.574219 22.582031 56.042969 C 22.648438 56.171875 22.777344 56.570312 22.871094 56.925781 C 23.054688 57.648438 23.390625 58.433594 23.625 58.691406 C 23.710938 58.785156 23.863281 59.089844 23.964844 59.367188 C 24.066406 59.644531 24.261719 59.996094 24.398438 60.152344 C 24.535156 60.308594 24.710938 60.5625 24.789062 60.710938 C 25.015625 61.15625 25.582031 61.960938 26.140625 62.644531 C 26.429688 62.996094 26.726562 63.398438 26.796875 63.539062 C 26.871094 63.679688 27.265625 64.109375 27.679688 64.492188 C 28.09375 64.878906 28.660156 65.417969 28.941406 65.691406 C 29.222656 65.964844 29.800781 66.441406 30.230469 66.753906 C 30.65625 67.066406 31.027344 67.375 31.054688 67.445312 C 31.082031 67.515625 31.285156 67.660156 31.511719 67.769531 C 32.070312 68.046875 32.808594 68.492188 33.074219 68.71875 C 33.199219 68.820312 33.773438 69.070312 34.351562 69.269531 C 35.714844 69.738281 36.6875 70.105469 37.066406 70.296875 C 37.230469 70.382812 37.683594 70.511719 38.070312 70.585938 C 38.792969 70.722656 39.484375 70.902344 40.078125 71.105469 C 41.335938 71.539062 46.484375 71.457031 48.109375 70.980469 C 48.414062 70.890625 49.027344 70.734375 49.46875 70.632812 C 49.914062 70.527344 50.410156 70.378906 50.574219 70.292969 C 50.738281 70.210938 51.332031 69.988281 51.890625 69.800781 C 53.3125 69.324219 54.378906 68.839844 54.792969 68.480469 C 54.984375 68.316406 55.332031 68.105469 55.558594 68.019531 C 55.980469 67.859375 56.703125 67.3125 58.425781 65.855469 C 58.933594 65.421875 59.457031 65.003906 59.59375 64.921875 C 59.730469 64.839844 59.902344 64.621094 59.976562 64.429688 C 60.058594 64.222656 60.210938 64.035156 60.351562 63.960938 C 60.585938 63.839844 61.128906 63.207031 61.921875 62.136719 C 62.15625 61.820312 62.484375 61.394531 62.652344 61.1875 C 62.820312 60.984375 63.007812 60.683594 63.070312 60.519531 C 63.132812 60.355469 63.25 60.125 63.328125 60.011719 C 63.527344 59.71875 64.054688 58.65625 64.128906 58.394531 C 64.164062 58.277344 64.339844 57.933594 64.519531 57.628906 C 64.699219 57.324219 64.890625 56.886719 64.949219 56.652344 C 65.003906 56.417969 65.097656 56.128906 65.160156 56.007812 C 65.300781 55.726562 65.644531 54.332031 65.828125 53.296875 C 65.910156 52.851562 66.023438 52.257812 66.085938 51.976562 C 66.414062 50.519531 66.464844 47.160156 66.179688 46.15625 C 66.105469 45.898438 65.96875 45.285156 65.878906 44.796875 C 65.488281 42.707031 64.730469 40.203125 64.398438 39.902344 C 64.292969 39.808594 64.136719 39.519531 64.054688 39.265625 C 63.921875 38.847656 63.105469 37.398438 62.496094 36.5 C 62.367188 36.308594 62.113281 35.925781 61.929688 35.648438 C 61.4375 34.910156 60.703125 34.035156 60.460938 33.90625 C 60.34375 33.84375 60.15625 33.632812 60.039062 33.433594 C 59.921875 33.234375 59.695312 32.992188 59.539062 32.890625 C 59.378906 32.792969 59.179688 32.597656 59.097656 32.457031 C 59.015625 32.3125 58.609375 31.976562 58.183594 31.699219 C 56.511719 30.613281 56.21875 30.097656 56.921875 29.464844 C 57.246094 29.171875 57.539062 28.996094 59.117188 28.132812 C 59.398438 27.980469 59.742188 27.75 59.882812 27.617188 C 60.023438 27.488281 60.308594 27.316406 60.519531 27.230469 C 61.09375 27.003906 62.578125 25.847656 63.515625 24.894531 C 64.0625 24.34375 64.410156 24.054688 64.53125 24.054688 C 64.738281 24.054688 66.972656 21.84375 67.191406 21.425781 C 67.257812 21.289062 67.445312 21.070312 67.605469 20.9375 C 67.765625 20.804688 67.972656 20.542969 68.066406 20.355469 C 68.160156 20.167969 68.34375 19.957031 68.46875 19.890625 C 68.59375 19.824219 68.773438 19.613281 68.867188 19.425781 C 68.964844 19.238281 69.203125 18.851562 69.398438 18.574219 C 69.597656 18.292969 69.867188 17.871094 70 17.636719 C 70.132812 17.402344 70.382812 17.058594 70.550781 16.867188 C 70.722656 16.679688 71.011719 16.257812 71.191406 15.933594 C 71.375 15.609375 71.644531 15.179688 71.792969 14.984375 C 71.945312 14.785156 72.09375 14.539062 72.125 14.4375 C 72.160156 14.335938 72.324219 14.039062 72.488281 13.777344 C 72.65625 13.515625 72.863281 13.058594 72.945312 12.757812 C 73.027344 12.460938 73.152344 12.128906 73.222656 12.023438 C 73.292969 11.914062 73.425781 11.640625 73.515625 11.417969 C 73.605469 11.191406 73.859375 10.605469 74.078125 10.113281 C 74.609375 8.933594 74.972656 7.953125 75.058594 7.464844 C 75.097656 7.246094 75.261719 6.652344 75.421875 6.148438 C 75.585938 5.640625 75.800781 4.695312 75.90625 4.042969 C 76.011719 3.390625 76.203125 2.546875 76.335938 2.167969 C 76.585938 1.4375 76.769531 0 76.605469 0 C 76.507812 0 76.414062 0.398438 76.414062 0.839844 C 76.414062 1.007812 76.300781 1.519531 76.164062 1.972656 C 76.027344 2.429688 75.875 3.078125 75.824219 3.417969 C 75.644531 4.628906 75.492188 5.324219 75.191406 6.277344 C 75.023438 6.804688 74.886719 7.304688 74.886719 7.382812 C 74.886719 7.601562 74.355469 9.042969 73.910156 10.03125 C 73.6875 10.519531 73.433594 11.105469 73.34375 11.332031 C 73.253906 11.558594 73.125 11.828125 73.054688 11.933594 C 72.984375 12.039062 72.871094 12.320312 72.800781 12.558594 C 72.636719 13.109375 71.8125 14.746094 71.5625 15.011719 C 71.457031 15.121094 71.234375 15.464844 71.066406 15.769531 C 70.898438 16.074219 70.578125 16.5625 70.355469 16.851562 C 70.132812 17.144531 69.660156 17.824219 69.304688 18.359375 C 68.949219 18.898438 68.554688 19.453125 68.429688 19.59375 C 68.300781 19.734375 68.097656 20.019531 67.976562 20.234375 C 67.859375 20.445312 67.65625 20.671875 67.53125 20.738281 C 67.40625 20.808594 67.207031 21.035156 67.082031 21.246094 C 66.789062 21.75 64.863281 23.664062 64.421875 23.890625 C 64.230469 23.988281 63.683594 24.445312 63.207031 24.910156 C 62.210938 25.882812 60.898438 26.882812 60.4375 27.019531 C 60.261719 27.070312 59.953125 27.261719 59.746094 27.441406 C 59.539062 27.625 58.875 28.050781 58.265625 28.390625 C 57.660156 28.730469 57.046875 29.113281 56.90625 29.238281 C 56.765625 29.363281 56.546875 29.53125 56.417969 29.609375 C 55.828125 29.976562 56.363281 30.683594 58.097656 31.835938 C 58.472656 32.085938 58.867188 32.425781 58.980469 32.59375 C 59.089844 32.757812 59.3125 32.976562 59.46875 33.074219 C 59.628906 33.171875 59.8125 33.351562 59.875 33.476562 C 59.941406 33.601562 60.273438 33.988281 60.617188 34.339844 C 60.960938 34.691406 61.398438 35.207031 61.585938 35.488281 C 61.777344 35.769531 62.164062 36.339844 62.445312 36.761719 C 63.085938 37.714844 63.882812 39.144531 63.960938 39.484375 C 63.992188 39.621094 64.109375 39.832031 64.21875 39.949219 C 64.332031 40.066406 64.503906 40.410156 64.601562 40.714844 C 65.085938 42.222656 65.4375 43.449219 65.53125 43.988281 C 65.585938 44.316406 65.753906 45.117188 65.902344 45.773438 C 66.441406 48.144531 66.203125 51.296875 65.199219 55.164062 C 65.105469 55.515625 64.976562 55.957031 64.90625 56.140625 C 64.835938 56.328125 64.777344 56.546875 64.773438 56.625 C 64.773438 56.707031 64.632812 57.003906 64.46875 57.289062 C 64.300781 57.570312 64.09375 58.015625 64.003906 58.273438 C 63.914062 58.53125 63.761719 58.851562 63.664062 58.988281 C 63.566406 59.125 63.328125 59.574219 63.128906 59.988281 C 62.601562 61.09375 61.3125 62.761719 59.566406 64.601562 C 59.15625 65.03125 57.667969 66.285156 57.039062 66.726562 C 56.742188 66.9375 56.339844 67.261719 56.148438 67.449219 C 55.957031 67.636719 55.644531 67.835938 55.457031 67.894531 C 55.269531 67.949219 54.90625 68.152344 54.652344 68.34375 C 54.0625 68.785156 52.996094 69.285156 51.945312 69.617188 C 51.496094 69.757812 50.867188 69.992188 50.546875 70.136719 C 50.199219 70.292969 49.609375 70.460938 49.097656 70.546875 C 48.617188 70.628906 48.152344 70.738281 48.054688 70.789062 C 47.960938 70.839844 47.675781 70.902344 47.421875 70.933594 C 47.167969 70.960938 46.578125 71.046875 46.113281 71.121094 C 44.585938 71.363281 41.078125 71.203125 39.949219 70.84375 C 39.738281 70.777344 39.105469 70.628906 38.539062 70.515625 C 37.976562 70.40625 37.363281 70.238281 37.179688 70.144531 C 36.671875 69.886719 35.851562 69.578125 34.675781 69.195312 C 33.894531 68.945312 33.484375 68.757812 33.148438 68.507812 C 32.894531 68.316406 32.589844 68.140625 32.472656 68.109375 C 32.355469 68.082031 31.96875 67.832031 31.621094 67.558594 C 31.269531 67.285156 30.734375 66.882812 30.429688 66.660156 C 30.125 66.4375 29.621094 66.003906 29.308594 65.691406 C 28.996094 65.382812 28.609375 65.050781 28.453125 64.953125 C 28.082031 64.722656 27.195312 63.761719 26.585938 62.929688 C 26.316406 62.5625 25.902344 62.015625 25.667969 61.710938 C 25.429688 61.40625 25.125 60.9375 24.984375 60.671875 C 24.847656 60.40625 24.601562 60.050781 24.4375 59.886719 C 24.273438 59.726562 24.136719 59.523438 24.136719 59.4375 C 24.136719 59.355469 24.003906 59.039062 23.84375 58.734375 C 23.320312 57.75 23.144531 57.339844 23.039062 56.863281 C 22.980469 56.609375 22.882812 56.28125 22.824219 56.140625 C 22.386719 55.097656 22.078125 53.976562 21.964844 53.019531 C 21.898438 52.445312 21.789062 51.613281 21.722656 51.171875 C 21.441406 49.273438 21.449219 48.65625 21.800781 46.070312 C 21.871094 45.578125 21.960938 44.847656 22.007812 44.449219 C 22.058594 44.011719 22.191406 43.464844 22.34375 43.085938 C 22.480469 42.734375 22.734375 41.953125 22.910156 41.347656 C 23.082031 40.742188 23.273438 40.191406 23.332031 40.121094 C 23.394531 40.050781 23.613281 39.628906 23.820312 39.183594 C 24.027344 38.742188 24.375 38.113281 24.597656 37.789062 C 24.820312 37.464844 25.128906 36.949219 25.285156 36.640625 C 25.441406 36.335938 25.832031 35.796875 26.15625 35.445312 C 26.480469 35.09375 26.835938 34.667969 26.949219 34.5 C 27.273438 34.023438 28.261719 33.007812 28.554688 32.855469 C 28.699219 32.78125 28.863281 32.644531 28.921875 32.550781 C 28.980469 32.457031 29.4375 32.015625 29.9375 31.566406 C 31.269531 30.371094 31.273438 30.074219 29.960938 29.4375 C 29.179688 29.058594 28.4375 28.625 28.042969 28.316406 C 27.921875 28.222656 27.632812 28.074219 27.398438 27.984375 C 26.90625 27.796875 25.386719 26.820312 24.800781 26.316406 C 24.015625 25.640625 23.667969 25.359375 23.375 25.160156 C 23.210938 25.050781 22.867188 24.761719 22.605469 24.519531 C 22.347656 24.273438 21.976562 23.996094 21.78125 23.894531 C 21.585938 23.796875 21.378906 23.628906 21.324219 23.527344 C 21.269531 23.425781 20.972656 23.0625 20.664062 22.726562 C 20.355469 22.390625 19.988281 21.984375 19.84375 21.828125 C 19.703125 21.675781 19.441406 21.4375 19.261719 21.304688 C 19.074219 21.164062 18.855469 20.882812 18.746094 20.644531 C 18.640625 20.417969 18.453125 20.148438 18.328125 20.050781 C 18.203125 19.953125 18.019531 19.714844 17.921875 19.519531 C 17.824219 19.328125 17.527344 18.933594 17.265625 18.652344 C 16.585938 17.917969 16.179688 17.378906 15.832031 16.746094 C 15.664062 16.441406 15.457031 16.113281 15.375 16.019531 C 15.289062 15.925781 15.167969 15.695312 15.101562 15.511719 C 15.035156 15.324219 14.761719 14.828125 14.496094 14.40625 C 13.929688 13.515625 13.109375 11.851562 13.035156 11.453125 C 13.007812 11.300781 12.78125 10.769531 12.53125 10.265625 C 12.261719 9.726562 12.027344 9.109375 11.953125 8.753906 C 11.886719 8.421875 11.769531 8.058594 11.695312 7.949219 C 11.496094 7.640625 11.164062 6.722656 11.054688 6.15625 C 11 5.878906 10.863281 5.328125 10.746094 4.929688 C 10.507812 4.09375 10.03125 1.328125 10.03125 0.765625 C 10.027344 0.292969 9.953125 0 9.835938 0 C 9.78125 0 9.765625 0.253906 9.800781 0.738281 "/>
<path style=" stroke:none;fill-rule:evenodd;fill:rgb(83.137255%,83.137255%,83.137255%);fill-opacity:1;" d="M 9.09375 0.152344 C 9.09375 0.433594 9.441406 2.210938 9.566406 2.5625 C 9.636719 2.753906 9.730469 3.164062 9.78125 3.476562 C 9.828125 3.785156 9.964844 4.324219 10.085938 4.675781 C 10.203125 5.027344 10.355469 5.632812 10.425781 6.027344 C 10.496094 6.421875 10.601562 6.84375 10.664062 6.964844 C 10.722656 7.082031 10.878906 7.546875 11.007812 7.988281 C 11.136719 8.433594 11.367188 9.046875 11.519531 9.351562 C 11.671875 9.652344 11.820312 10.015625 11.851562 10.15625 C 11.882812 10.296875 11.996094 10.546875 12.105469 10.710938 C 12.304688 11.019531 12.554688 11.691406 12.84375 12.6875 C 13.015625 13.296875 13.722656 14.625 14.074219 15.003906 C 14.1875 15.125 14.359375 15.375 14.449219 15.554688 C 14.542969 15.734375 14.65625 15.90625 14.707031 15.9375 C 14.753906 15.96875 14.910156 16.230469 15.054688 16.515625 C 15.199219 16.804688 15.40625 17.15625 15.507812 17.296875 C 15.613281 17.4375 15.769531 17.6875 15.851562 17.847656 C 15.9375 18.011719 16.203125 18.394531 16.445312 18.699219 C 16.683594 19.003906 17.011719 19.445312 17.171875 19.675781 C 17.328125 19.910156 17.507812 20.140625 17.566406 20.1875 C 17.625 20.234375 17.738281 20.425781 17.8125 20.613281 C 18.113281 21.34375 19.050781 22.410156 19.527344 22.5625 C 19.632812 22.59375 19.800781 22.742188 19.902344 22.890625 C 20.160156 23.269531 21.011719 24.140625 21.125 24.140625 C 21.179688 24.140625 21.433594 24.339844 21.691406 24.585938 C 22.703125 25.542969 23.105469 25.851562 25.289062 27.34375 C 25.613281 27.570312 25.910156 27.792969 25.941406 27.84375 C 25.976562 27.894531 26.167969 28.007812 26.367188 28.09375 C 26.566406 28.179688 26.792969 28.304688 26.871094 28.367188 C 26.945312 28.429688 27.335938 28.652344 27.738281 28.859375 C 28.140625 29.0625 28.585938 29.339844 28.730469 29.46875 C 28.871094 29.601562 29.207031 29.824219 29.476562 29.96875 C 30.097656 30.300781 30.121094 30.5625 29.570312 31.019531 C 29.375 31.179688 29.15625 31.414062 29.078125 31.539062 C 28.957031 31.742188 28.664062 32.011719 27.8125 32.707031 C 27.230469 33.1875 26.894531 33.554688 26.613281 34.03125 C 26.429688 34.335938 26.132812 34.667969 25.832031 34.898438 C 25.234375 35.359375 24.898438 35.78125 24.695312 36.335938 C 24.527344 36.789062 24.203125 37.351562 24.058594 37.441406 C 24.011719 37.46875 23.882812 37.671875 23.773438 37.894531 C 23.15625 39.117188 23.054688 39.335938 23 39.5625 C 22.964844 39.699219 22.871094 39.910156 22.785156 40.03125 C 22.703125 40.148438 22.585938 40.402344 22.527344 40.585938 C 22.46875 40.773438 22.210938 41.464844 21.953125 42.117188 C 21.515625 43.230469 21.480469 43.375 21.410156 44.347656 C 21.371094 44.917969 21.257812 45.734375 21.164062 46.15625 C 20.628906 48.558594 21.199219 54.644531 22.085938 56.015625 C 22.160156 56.132812 22.308594 56.496094 22.410156 56.824219 C 22.917969 58.429688 23.1875 59.105469 23.484375 59.519531 C 24.003906 60.25 24.734375 61.382812 24.945312 61.796875 C 25.054688 62.003906 25.378906 62.445312 25.667969 62.773438 C 25.953125 63.101562 26.265625 63.511719 26.359375 63.691406 C 26.453125 63.867188 26.585938 64.035156 26.65625 64.0625 C 26.722656 64.089844 26.835938 64.21875 26.90625 64.351562 C 27.050781 64.632812 27.453125 65.023438 27.59375 65.023438 C 27.648438 65.023438 28.03125 65.382812 28.445312 65.816406 C 28.859375 66.253906 29.40625 66.757812 29.664062 66.9375 C 29.921875 67.117188 30.285156 67.40625 30.472656 67.578125 C 30.882812 67.960938 31.046875 68.046875 31.507812 68.125 C 31.785156 68.167969 31.878906 68.230469 31.957031 68.417969 C 32.089844 68.738281 33.136719 69.320312 34.117188 69.617188 C 35.035156 69.894531 35.730469 70.183594 36.082031 70.433594 C 36.367188 70.636719 37.042969 70.828125 37.964844 70.964844 C 38.300781 71.015625 38.875 71.15625 39.242188 71.277344 C 40.386719 71.65625 47.304688 71.824219 47.929688 71.488281 C 48.027344 71.4375 48.46875 71.304688 48.914062 71.191406 C 49.355469 71.078125 49.84375 70.929688 49.996094 70.859375 C 50.152344 70.789062 50.410156 70.707031 50.574219 70.671875 C 50.738281 70.640625 51.042969 70.527344 51.253906 70.421875 C 51.464844 70.316406 51.847656 70.1875 52.105469 70.132812 C 52.359375 70.078125 52.800781 69.925781 53.082031 69.792969 C 53.363281 69.660156 53.6875 69.523438 53.800781 69.488281 C 54.34375 69.316406 55.089844 68.921875 55.515625 68.574219 C 55.773438 68.367188 56.132812 68.144531 56.316406 68.085938 C 56.503906 68.027344 56.824219 67.816406 57.035156 67.617188 C 57.246094 67.417969 57.660156 67.082031 57.953125 66.867188 C 58.246094 66.652344 58.65625 66.320312 58.859375 66.125 C 59.0625 65.929688 59.378906 65.679688 59.558594 65.574219 C 59.835938 65.410156 61.113281 64.019531 61.113281 63.886719 C 61.113281 63.859375 61.335938 63.542969 61.605469 63.179688 C 61.875 62.816406 62.160156 62.421875 62.234375 62.304688 C 62.308594 62.1875 62.605469 61.824219 62.890625 61.496094 C 63.175781 61.171875 63.464844 60.738281 63.53125 60.539062 C 63.601562 60.339844 63.792969 60.050781 63.957031 59.890625 C 64.15625 59.707031 64.261719 59.53125 64.261719 59.386719 C 64.261719 59.261719 64.464844 58.769531 64.71875 58.289062 C 64.96875 57.808594 65.222656 57.1875 65.285156 56.90625 C 65.34375 56.628906 65.496094 56.203125 65.621094 55.964844 C 65.839844 55.542969 65.898438 55.308594 66.335938 52.996094 C 66.847656 50.292969 66.867188 47.203125 66.390625 45.304688 C 66.304688 44.953125 66.1875 44.308594 66.128906 43.871094 C 66.074219 43.433594 65.9375 42.8125 65.824219 42.492188 C 65.710938 42.171875 65.621094 41.855469 65.621094 41.792969 C 65.621094 41.726562 65.519531 41.488281 65.398438 41.257812 C 65.273438 41.03125 65.121094 40.542969 65.058594 40.179688 C 64.921875 39.390625 64.859375 39.261719 64.472656 38.964844 C 64.308594 38.839844 64.175781 38.695312 64.175781 38.644531 C 64.175781 38.589844 63.925781 38.113281 63.621094 37.582031 C 63.320312 37.050781 63.070312 36.585938 63.070312 36.550781 C 63.070312 36.515625 62.925781 36.320312 62.75 36.117188 C 62.574219 35.910156 62.363281 35.59375 62.28125 35.414062 C 62.089844 35 60.738281 33.421875 60.46875 33.300781 C 60.355469 33.25 60.265625 33.175781 60.265625 33.140625 C 60.265625 33.101562 60.035156 32.832031 59.75 32.539062 C 59.46875 32.242188 59.160156 31.917969 59.0625 31.816406 C 58.96875 31.714844 58.75 31.558594 58.578125 31.472656 C 56.667969 30.507812 56.695312 29.738281 58.664062 28.898438 C 59.203125 28.667969 59.675781 28.398438 59.890625 28.203125 C 60.082031 28.027344 60.386719 27.820312 60.570312 27.746094 C 60.957031 27.582031 61.5625 27.1875 61.921875 26.859375 C 62.0625 26.730469 62.476562 26.421875 62.84375 26.171875 C 63.226562 25.914062 63.671875 25.515625 63.882812 25.246094 C 64.167969 24.882812 64.347656 24.742188 64.671875 24.628906 C 65.132812 24.464844 65.417969 24.214844 65.875 23.578125 C 66.039062 23.347656 66.40625 22.933594 66.691406 22.652344 C 66.976562 22.371094 67.351562 21.921875 67.523438 21.652344 C 67.695312 21.386719 67.875 21.164062 67.925781 21.164062 C 68.195312 21.164062 68.929688 20.320312 69.308594 19.566406 C 69.425781 19.332031 69.679688 18.964844 69.867188 18.746094 C 70.054688 18.527344 70.210938 18.308594 70.210938 18.261719 C 70.210938 18.046875 70.648438 17.332031 70.988281 16.988281 C 71.191406 16.777344 71.429688 16.421875 71.515625 16.1875 C 71.605469 15.957031 71.757812 15.691406 71.863281 15.597656 C 72.269531 15.226562 73.238281 13.441406 73.523438 12.539062 C 73.582031 12.351562 73.679688 12.113281 73.746094 12.011719 C 73.808594 11.90625 73.957031 11.582031 74.070312 11.289062 C 74.441406 10.332031 74.726562 9.65625 74.933594 9.226562 C 75.046875 8.996094 75.140625 8.734375 75.140625 8.652344 C 75.140625 8.566406 75.203125 8.351562 75.277344 8.179688 C 75.488281 7.683594 75.886719 6.179688 76.113281 5.015625 C 76.226562 4.429688 76.457031 3.550781 76.625 3.058594 C 77.105469 1.648438 77.25 0 76.894531 0 C 76.703125 0 76.691406 0.0351562 76.632812 0.738281 C 76.597656 1.191406 76.480469 1.746094 76.335938 2.167969 C 76.203125 2.546875 76.011719 3.390625 75.90625 4.042969 C 75.800781 4.695312 75.585938 5.640625 75.421875 6.148438 C 75.261719 6.652344 75.097656 7.246094 75.058594 7.464844 C 74.972656 7.953125 74.609375 8.933594 74.078125 10.113281 C 73.859375 10.605469 73.605469 11.191406 73.515625 11.417969 C 73.425781 11.640625 73.292969 11.914062 73.222656 12.023438 C 73.152344 12.128906 73.027344 12.460938 72.945312 12.757812 C 72.863281 13.058594 72.65625 13.515625 72.488281 13.777344 C 72.324219 14.039062 72.160156 14.335938 72.125 14.4375 C 72.09375 14.539062 71.945312 14.785156 71.792969 14.984375 C 71.644531 15.179688 71.375 15.609375 71.191406 15.933594 C 71.011719 16.257812 70.722656 16.679688 70.550781 16.867188 C 70.382812 17.058594 70.132812 17.402344 70 17.636719 C 69.867188 17.871094 69.597656 18.292969 69.398438 18.574219 C 69.203125 18.851562 68.964844 19.238281 68.867188 19.425781 C 68.773438 19.613281 68.59375 19.824219 68.46875 19.890625 C 68.34375 19.957031 68.160156 20.167969 68.066406 20.355469 C 67.972656 20.542969 67.765625 20.804688 67.605469 20.9375 C 67.445312 21.070312 67.257812 21.289062 67.191406 21.425781 C 66.972656 21.84375 64.738281 24.054688 64.53125 24.054688 C 64.410156 24.054688 64.0625 24.34375 63.515625 24.894531 C 62.578125 25.847656 61.09375 27.003906 60.519531 27.230469 C 60.308594 27.316406 60.023438 27.488281 59.882812 27.617188 C 59.742188 27.75 59.398438 27.980469 59.117188 28.132812 C 57.539062 28.996094 57.246094 29.171875 56.921875 29.464844 C 56.21875 30.097656 56.511719 30.613281 58.183594 31.699219 C 58.609375 31.976562 59.015625 32.3125 59.097656 32.457031 C 59.179688 32.597656 59.378906 32.792969 59.539062 32.890625 C 59.695312 32.992188 59.921875 33.234375 60.039062 33.433594 C 60.15625 33.632812 60.34375 33.84375 60.460938 33.90625 C 60.703125 34.035156 61.4375 34.910156 61.929688 35.648438 C 62.113281 35.925781 62.367188 36.308594 62.496094 36.5 C 63.105469 37.398438 63.921875 38.847656 64.054688 39.265625 C 64.136719 39.519531 64.292969 39.808594 64.398438 39.902344 C 64.730469 40.203125 65.488281 42.707031 65.878906 44.796875 C 65.96875 45.285156 66.105469 45.898438 66.179688 46.15625 C 66.464844 47.160156 66.414062 50.519531 66.085938 51.976562 C 66.023438 52.257812 65.910156 52.851562 65.828125 53.296875 C 65.644531 54.332031 65.300781 55.726562 65.160156 56.007812 C 65.097656 56.128906 65.003906 56.417969 64.949219 56.652344 C 64.890625 56.886719 64.699219 57.324219 64.519531 57.628906 C 64.339844 57.933594 64.164062 58.277344 64.128906 58.394531 C 64.054688 58.65625 63.527344 59.71875 63.328125 60.011719 C 63.25 60.125 63.132812 60.355469 63.070312 60.519531 C 63.007812 60.683594 62.820312 60.984375 62.652344 61.1875 C 62.484375 61.394531 62.15625 61.820312 61.921875 62.136719 C 61.128906 63.207031 60.585938 63.839844 60.351562 63.960938 C 60.210938 64.035156 60.058594 64.222656 59.976562 64.429688 C 59.902344 64.621094 59.730469 64.839844 59.59375 64.921875 C 59.457031 65.003906 58.933594 65.421875 58.425781 65.855469 C 56.703125 67.3125 55.980469 67.859375 55.558594 68.019531 C 55.332031 68.105469 54.984375 68.316406 54.792969 68.480469 C 54.378906 68.839844 53.3125 69.324219 51.890625 69.800781 C 51.332031 69.988281 50.738281 70.210938 50.574219 70.292969 C 50.410156 70.378906 49.914062 70.527344 49.46875 70.632812 C 49.027344 70.734375 48.414062 70.890625 48.109375 70.980469 C 46.484375 71.457031 41.335938 71.539062 40.078125 71.105469 C 39.484375 70.902344 38.792969 70.722656 38.070312 70.585938 C 37.683594 70.511719 37.230469 70.382812 37.066406 70.296875 C 36.6875 70.105469 35.714844 69.738281 34.351562 69.269531 C 33.773438 69.070312 33.199219 68.820312 33.074219 68.71875 C 32.808594 68.492188 32.070312 68.046875 31.511719 67.769531 C 31.285156 67.660156 31.082031 67.515625 31.054688 67.445312 C 31.027344 67.375 30.65625 67.066406 30.230469 66.753906 C 29.800781 66.441406 29.222656 65.964844 28.941406 65.691406 C 28.660156 65.417969 28.09375 64.878906 27.679688 64.492188 C 27.265625 64.109375 26.871094 63.679688 26.796875 63.539062 C 26.726562 63.398438 26.429688 62.996094 26.140625 62.644531 C 25.582031 61.960938 25.015625 61.15625 24.789062 60.710938 C 24.710938 60.5625 24.535156 60.308594 24.398438 60.152344 C 24.261719 59.996094 24.066406 59.644531 23.964844 59.367188 C 23.863281 59.089844 23.710938 58.785156 23.625 58.691406 C 23.390625 58.433594 23.054688 57.648438 22.871094 56.925781 C 22.777344 56.570312 22.648438 56.171875 22.582031 56.042969 C 22.34375 55.574219 21.941406 54.175781 21.847656 53.464844 C 21.792969 53.066406 21.710938 52.53125 21.664062 52.273438 C 21.34375 50.542969 21.273438 48.847656 21.460938 47.261719 C 21.777344 44.570312 21.859375 43.960938 21.972656 43.5625 C 22.25 42.589844 23.089844 40.226562 23.257812 39.949219 C 23.359375 39.785156 23.46875 39.5625 23.5 39.453125 C 23.613281 39.078125 24.082031 38.207031 24.484375 37.613281 C 24.707031 37.285156 24.984375 36.808594 25.097656 36.550781 C 25.226562 36.257812 25.5625 35.808594 25.984375 35.359375 C 26.355469 34.960938 26.820312 34.398438 27.019531 34.105469 C 27.214844 33.8125 27.40625 33.574219 27.441406 33.574219 C 27.476562 33.574219 27.71875 33.375 27.980469 33.128906 C 28.238281 32.882812 28.5625 32.585938 28.699219 32.46875 C 30.925781 30.53125 31.078125 30.164062 29.871094 29.625 C 29.632812 29.519531 29.242188 29.300781 29.003906 29.144531 C 28.632812 28.898438 28.230469 28.640625 27.710938 28.316406 C 27.640625 28.269531 27.390625 28.160156 27.152344 28.070312 C 26.914062 27.976562 26.496094 27.742188 26.21875 27.550781 C 25.941406 27.355469 25.535156 27.074219 25.316406 26.921875 C 25.097656 26.769531 24.640625 26.417969 24.296875 26.136719 C 23.953125 25.859375 23.378906 25.410156 23.019531 25.140625 C 22.65625 24.875 22.300781 24.5625 22.226562 24.449219 C 22.152344 24.335938 21.886719 24.132812 21.636719 24.003906 C 21.386719 23.871094 21.121094 23.664062 21.046875 23.539062 C 20.972656 23.414062 20.761719 23.175781 20.574219 23.007812 C 20.386719 22.839844 20.136719 22.546875 20.019531 22.359375 C 19.902344 22.171875 19.660156 21.925781 19.480469 21.8125 C 19.082031 21.558594 18.648438 21.070312 18.460938 20.667969 C 18.386719 20.496094 18.1875 20.203125 18.023438 20.011719 C 17.859375 19.820312 17.65625 19.554688 17.574219 19.417969 C 17.492188 19.28125 17.148438 18.835938 16.808594 18.429688 C 16.46875 18.027344 16 17.363281 15.765625 16.960938 C 15.535156 16.554688 15.261719 16.121094 15.164062 15.996094 C 15.066406 15.871094 14.945312 15.644531 14.894531 15.496094 C 14.84375 15.34375 14.652344 15 14.46875 14.730469 C 13.984375 14.015625 13.386719 12.929688 13.257812 12.539062 C 13.199219 12.351562 13.101562 12.121094 13.039062 12.027344 C 12.980469 11.933594 12.90625 11.71875 12.875 11.546875 C 12.84375 11.375 12.632812 10.867188 12.40625 10.414062 C 12.171875 9.941406 11.933594 9.3125 11.851562 8.9375 C 11.769531 8.582031 11.632812 8.183594 11.542969 8.058594 C 11.332031 7.753906 11.066406 7.003906 10.878906 6.164062 C 10.792969 5.789062 10.609375 5.023438 10.472656 4.460938 C 10.121094 3.050781 9.863281 1.613281 9.800781 0.738281 L 9.75 0 L 9.421875 0 C 9.164062 0 9.09375 0.03125 9.09375 0.152344 "/>
<path style=" stroke:none;fill-rule:evenodd;fill:rgb(73.72549%,73.72549%,73.72549%);fill-opacity:1;" d="M 0 42.5 L 0 85 L 85 85 L 85 0 L 77.132812 0 L 77.035156 1.082031 C 76.957031 1.933594 76.871094 2.359375 76.628906 3.058594 C 76.457031 3.550781 76.226562 4.429688 76.113281 5.015625 C 75.886719 6.179688 75.488281 7.683594 75.277344 8.179688 C 75.203125 8.351562 75.140625 8.566406 75.140625 8.652344 C 75.140625 8.734375 75.046875 8.996094 74.933594 9.226562 C 74.726562 9.65625 74.441406 10.332031 74.070312 11.289062 C 73.957031 11.582031 73.808594 11.90625 73.746094 12.011719 C 73.679688 12.113281 73.582031 12.351562 73.523438 12.539062 C 73.238281 13.441406 72.269531 15.226562 71.863281 15.597656 C 71.757812 15.691406 71.605469 15.957031 71.515625 16.1875 C 71.429688 16.421875 71.191406 16.777344 70.988281 16.988281 C 70.648438 17.332031 70.210938 18.046875 70.210938 18.261719 C 70.210938 18.308594 70.054688 18.527344 69.867188 18.746094 C 69.679688 18.964844 69.425781 19.332031 69.308594 19.566406 C 68.929688 20.320312 68.195312 21.164062 67.925781 21.164062 C 67.875 21.164062 67.695312 21.386719 67.523438 21.652344 C 67.351562 21.921875 66.976562 22.371094 66.691406 22.652344 C 66.40625 22.933594 66.039062 23.347656 65.875 23.578125 C 65.417969 24.214844 65.132812 24.464844 64.671875 24.628906 C 64.347656 24.742188 64.167969 24.882812 63.882812 25.246094 C 63.671875 25.515625 63.226562 25.914062 62.84375 26.171875 C 62.476562 26.421875 62.0625 26.730469 61.921875 26.859375 C 61.5625 27.1875 60.957031 27.582031 60.570312 27.746094 C 60.386719 27.820312 60.082031 28.027344 59.890625 28.203125 C 59.675781 28.398438 59.203125 28.667969 58.664062 28.898438 C 56.695312 29.738281 56.667969 30.507812 58.578125 31.472656 C 58.75 31.558594 58.96875 31.714844 59.0625 31.816406 C 59.160156 31.917969 59.46875 32.242188 59.75 32.539062 C 60.035156 32.832031 60.265625 33.101562 60.265625 33.140625 C 60.265625 33.175781 60.355469 33.25 60.46875 33.300781 C 60.738281 33.421875 62.089844 35 62.28125 35.414062 C 62.363281 35.59375 62.574219 35.910156 62.75 36.117188 C 62.925781 36.320312 63.070312 36.515625 63.070312 36.550781 C 63.070312 36.585938 63.320312 37.050781 63.621094 37.582031 C 63.925781 38.113281 64.175781 38.589844 64.175781 38.644531 C 64.175781 38.695312 64.308594 38.839844 64.472656 38.964844 C 64.859375 39.261719 64.921875 39.390625 65.058594 40.179688 C 65.121094 40.542969 65.273438 41.03125 65.398438 41.257812 C 65.519531 41.488281 65.621094 41.726562 65.621094 41.792969 C 65.621094 41.855469 65.710938 42.171875 65.824219 42.492188 C 65.9375 42.8125 66.074219 43.433594 66.128906 43.871094 C 66.1875 44.308594 66.304688 44.953125 66.390625 45.304688 C 66.867188 47.203125 66.847656 50.292969 66.335938 52.996094 C 65.898438 55.308594 65.839844 55.542969 65.621094 55.964844 C 65.496094 56.203125 65.34375 56.628906 65.285156 56.90625 C 65.222656 57.1875 64.96875 57.808594 64.71875 58.289062 C 64.464844 58.769531 64.261719 59.261719 64.261719 59.386719 C 64.261719 59.53125 64.15625 59.707031 63.957031 59.890625 C 63.792969 60.050781 63.601562 60.339844 63.53125 60.539062 C 63.464844 60.738281 63.175781 61.171875 62.890625 61.496094 C 62.605469 61.824219 62.308594 62.1875 62.234375 62.304688 C 62.160156 62.421875 61.875 62.816406 61.605469 63.179688 C 61.335938 63.542969 61.113281 63.859375 61.113281 63.886719 C 61.113281 64.019531 59.835938 65.410156 59.558594 65.574219 C 59.378906 65.679688 59.0625 65.929688 58.859375 66.125 C 58.65625 66.320312 58.246094 66.652344 57.953125 66.867188 C 57.660156 67.082031 57.246094 67.417969 57.035156 67.617188 C 56.824219 67.816406 56.503906 68.027344 56.316406 68.085938 C 56.132812 68.144531 55.773438 68.367188 55.515625 68.574219 C 55.089844 68.921875 54.34375 69.316406 53.800781 69.488281 C 53.6875 69.523438 53.363281 69.660156 53.082031 69.792969 C 52.800781 69.925781 52.359375 70.078125 52.105469 70.132812 C 51.847656 70.1875 51.464844 70.316406 51.253906 70.421875 C 51.042969 70.527344 50.738281 70.640625 50.574219 70.671875 C 50.410156 70.707031 50.152344 70.789062 49.996094 70.859375 C 49.84375 70.929688 49.355469 71.078125 48.914062 71.191406 C 48.46875 71.304688 48.027344 71.4375 47.929688 71.488281 C 47.304688 71.824219 40.386719 71.65625 39.242188 71.277344 C 38.875 71.15625 38.300781 71.015625 37.964844 70.964844 C 37.042969 70.828125 36.367188 70.636719 36.082031 70.433594 C 35.730469 70.183594 35.035156 69.894531 34.117188 69.617188 C 33.136719 69.320312 32.089844 68.738281 31.957031 68.417969 C 31.878906 68.230469 31.785156 68.167969 31.507812 68.125 C 31.046875 68.046875 30.882812 67.960938 30.472656 67.578125 C 30.285156 67.40625 29.921875 67.117188 29.664062 66.9375 C 29.40625 66.757812 28.859375 66.253906 28.445312 65.816406 C 28.03125 65.382812 27.648438 65.023438 27.59375 65.023438 C 27.453125 65.023438 27.050781 64.632812 26.90625 64.351562 C 26.835938 64.21875 26.722656 64.089844 26.65625 64.0625 C 26.585938 64.035156 26.453125 63.867188 26.359375 63.691406 C 26.265625 63.511719 25.953125 63.101562 25.667969 62.773438 C 25.378906 62.445312 25.054688 62.003906 24.945312 61.796875 C 24.734375 61.382812 24.003906 60.25 23.484375 59.519531 C 23.1875 59.105469 22.917969 58.429688 22.410156 56.824219 C 22.308594 56.496094 22.160156 56.132812 22.085938 56.015625 C 21.199219 54.644531 20.628906 48.558594 21.164062 46.15625 C 21.257812 45.734375 21.371094 44.917969 21.410156 44.347656 C 21.480469 43.375 21.515625 43.230469 21.953125 42.117188 C 22.210938 41.464844 22.46875 40.773438 22.527344 40.585938 C 22.585938 40.402344 22.703125 40.148438 22.785156 40.03125 C 22.871094 39.910156 22.964844 39.699219 23 39.5625 C 23.054688 39.335938 23.15625 39.117188 23.773438 37.894531 C 23.882812 37.671875 24.011719 37.46875 24.058594 37.441406 C 24.203125 37.351562 24.527344 36.789062 24.695312 36.335938 C 24.898438 35.78125 25.234375 35.359375 25.832031 34.898438 C 26.132812 34.667969 26.429688 34.335938 26.613281 34.03125 C 26.894531 33.554688 27.230469 33.1875 27.8125 32.707031 C 28.664062 32.011719 28.957031 31.742188 29.078125 31.539062 C 29.15625 31.414062 29.375 31.179688 29.570312 31.019531 C 30.121094 30.5625 30.097656 30.300781 29.476562 29.96875 C 29.207031 29.824219 28.871094 29.601562 28.730469 29.46875 C 28.585938 29.339844 28.140625 29.0625 27.738281 28.859375 C 27.335938 28.652344 26.945312 28.429688 26.871094 28.367188 C 26.792969 28.304688 26.566406 28.179688 26.367188 28.09375 C 26.167969 28.007812 25.976562 27.894531 25.941406 27.84375 C 25.910156 27.792969 25.613281 27.570312 25.289062 27.34375 C 23.105469 25.851562 22.703125 25.542969 21.691406 24.585938 C 21.433594 24.339844 21.179688 24.140625 21.125 24.140625 C 21.011719 24.140625 20.160156 23.269531 19.902344 22.890625 C 19.800781 22.742188 19.632812 22.59375 19.527344 22.5625 C 19.050781 22.410156 18.113281 21.34375 17.8125 20.613281 C 17.738281 20.425781 17.625 20.234375 17.566406 20.1875 C 17.507812 20.140625 17.328125 19.910156 17.171875 19.675781 C 17.011719 19.445312 16.683594 19.003906 16.445312 18.699219 C 16.203125 18.394531 15.9375 18.011719 15.851562 17.847656 C 15.769531 17.6875 15.613281 17.4375 15.507812 17.296875 C 15.40625 17.15625 15.199219 16.804688 15.054688 16.515625 C 14.910156 16.230469 14.753906 15.96875 14.707031 15.9375 C 14.65625 15.90625 14.542969 15.734375 14.449219 15.554688 C 14.359375 15.375 14.1875 15.125 14.074219 15.003906 C 13.722656 14.625 13.015625 13.296875 12.84375 12.6875 C 12.554688 11.691406 12.304688 11.019531 12.105469 10.710938 C 11.996094 10.546875 11.882812 10.296875 11.851562 10.15625 C 11.820312 10.015625 11.671875 9.652344 11.519531 9.351562 C 11.367188 9.046875 11.136719 8.433594 11.007812 7.988281 C 10.878906 7.546875 10.722656 7.082031 10.664062 6.964844 C 10.601562 6.84375 10.496094 6.421875 10.425781 6.027344 C 10.355469 5.632812 10.203125 5.027344 10.085938 4.675781 C 9.964844 4.324219 9.828125 3.789062 9.78125 3.484375 C 9.730469 3.179688 9.617188 2.703125 9.53125 2.421875 C 9.445312 2.140625 9.300781 1.480469 9.214844 0.957031 L 9.058594 0 L 0 0 L 0 42.5 "/>
</g>
</svg>
